<svg xmlns="http://www.w3.org/2000/svg" viewBox="0 0 165 37.15"><defs><style>.cls-1{fill:#fff;}</style></defs><title>Asset 2</title><g id="Layer_2" data-name="Layer 2"><g id="Layer_1-2" data-name="Layer 1"><path class="cls-1" d="M123.15,10.17a7.63,7.63,0,0,0-5.48,2.37v-8a.47.47,0,0,0-.47-.47h-2.79a.47.47,0,0,0-.47.47V26.1a.47.47,0,0,0,.47.46h2.79a.47.47,0,0,0,.47-.46h0V24.61A7.62,7.62,0,0,0,123.15,27a8.16,8.16,0,0,0,7.9-8.4A8.16,8.16,0,0,0,123.15,10.17Zm-.66,13.44a4.93,4.93,0,0,1-4.82-5v-.12a4.83,4.83,0,1,1,9.65.06,4.93,4.93,0,0,1-4.83,5Z"/><path class="cls-1" d="M141.35,10.17a8.4,8.4,0,1,0,8.55,8.4A8.48,8.48,0,0,0,141.35,10.17Zm0,13.44a4.93,4.93,0,0,1-4.83-5,4.83,4.83,0,1,1,9.66,0,4.93,4.93,0,0,1-4.83,5Z"/><path class="cls-1" d="M89.09,10.59H86.3a.46.46,0,0,0-.47.46h0v1.49a7.63,7.63,0,0,0-5.48-2.37,8.16,8.16,0,0,0-7.9,8.4,8.16,8.16,0,0,0,7.9,8.4,7.62,7.62,0,0,0,5.48-2.36V26.1a.47.47,0,0,0,.47.46h2.79a.47.47,0,0,0,.47-.46h0v-15A.46.46,0,0,0,89.09,10.59ZM81,23.61a4.93,4.93,0,0,1-4.83-5,4.83,4.83,0,1,1,9.65-.06v.12a4.93,4.93,0,0,1-4.82,5Z"/><path class="cls-1" d="M103.09,10.17a7.64,7.64,0,0,0-5.49,2.37V11.05a.46.46,0,0,0-.47-.46H94.34a.45.45,0,0,0-.46.46h0V32.57a.45.45,0,0,0,.46.46h2.79a.46.46,0,0,0,.47-.46h0v-8A7.63,7.63,0,0,0,103.09,27a8.15,8.15,0,0,0,7.89-8.4A8.15,8.15,0,0,0,103.09,10.17Zm-.66,13.44a4.93,4.93,0,0,1-4.83-5v-.12a4.83,4.83,0,1,1,9.66.06,4.94,4.94,0,0,1-4.83,5Z"/><path class="cls-1" d="M64.08,10.17a5.47,5.47,0,0,0-4.89,3.13,5.91,5.91,0,0,0-5.27-3.13,5.39,5.39,0,0,0-4.33,2.22V11.05a.47.47,0,0,0-.46-.47h-2.8a.47.47,0,0,0-.46.47h0v15a.47.47,0,0,0,.46.47h2.8a.47.47,0,0,0,.46-.47h0v-9a3.54,3.54,0,0,1,3.22-3.61,3.32,3.32,0,0,1,3.25,3.43v9.18a.47.47,0,0,0,.46.47h2.82a.46.46,0,0,0,.46-.46h0l0-9.37A3.47,3.47,0,0,1,63,13.48a3.32,3.32,0,0,1,3.25,3.43v9.18a.47.47,0,0,0,.46.47H69.5A.47.47,0,0,0,70,26.1h0l0-10.35A5.72,5.72,0,0,0,64.08,10.17Z"/><path class="cls-1" d="M164.94,25.91l-4.86-7.38,4.8-7.3a.41.41,0,0,0-.12-.58.4.4,0,0,0-.22-.06h-3.23a.69.69,0,0,0-.6.33l-2.82,4.73-2.83-4.73a.68.68,0,0,0-.59-.33h-3.23a.41.41,0,0,0-.42.41.48.48,0,0,0,.07.23l4.8,7.3-4.85,7.38a.41.41,0,0,0,.12.58.35.35,0,0,0,.23.07h3.22a.69.69,0,0,0,.6-.34l2.88-4.81,2.87,4.81a.71.71,0,0,0,.6.34h3.23a.41.41,0,0,0,.41-.42A.46.46,0,0,0,164.94,25.91Z"/><path class="cls-1" d="M18.57,0A18.58,18.58,0,1,0,37.15,18.57,18.58,18.58,0,0,0,18.57,0Zm8.81,23.12C21,29.48,9.7,27.45,9.7,27.45S7.66,16.12,14,9.76a9.26,9.26,0,0,1,13.07.3,9.24,9.24,0,0,1,.29,13.06Z"/><polygon class="cls-1" points="20.7 10.88 18.88 14.63 15.14 16.45 18.88 18.27 20.7 22 22.52 18.27 26.26 16.45 22.52 14.63 20.7 10.88"/></g></g></svg>