<?xml version="1.0" encoding="utf-8"?>
<!-- Generator: Adobe Illustrator 20.1.0, SVG Export Plug-In . SVG Version: 6.00 Build 0)  -->
<svg version="1.1" id="Layer_1" xmlns="http://www.w3.org/2000/svg" xmlns:xlink="http://www.w3.org/1999/xlink" x="0px" y="0px"
	 viewBox="0 0 167 40" style="enable-background:new 0 0 167 40;" xml:space="preserve">
<style type="text/css">
	.st0{fill:#0070F4;}
</style>
<g>
	<g>
		<path class="st0" d="M124.2,11.6c-2.1,0-4.1,0.9-5.5,2.4V6c0-0.3-0.2-0.5-0.5-0.5l0,0h-2.8c-0.3,0-0.5,0.2-0.5,0.5v21.5
			c0,0.3,0.2,0.5,0.5,0.5h2.8c0.3,0,0.5-0.2,0.5-0.5v0V26c1.4,1.5,3.4,2.4,5.5,2.4c4.4,0,7.9-3.8,7.9-8.4S128.5,11.6,124.2,11.6z
			 M123.5,25c-2.6,0-4.8-2.2-4.8-5v-0.1c0-2.8,2.2-5,4.8-5c2.7,0,4.8,2.3,4.8,5S126.2,25,123.5,25L123.5,25z"/>
		<path class="st0" d="M142.3,11.6c-4.7,0-8.6,3.8-8.6,8.4s3.8,8.4,8.6,8.4s8.6-3.8,8.6-8.4S147.1,11.6,142.3,11.6z M142.3,25
			c-2.7,0-4.8-2.3-4.8-5s2.2-5,4.8-5s4.8,2.3,4.8,5S145,25,142.3,25L142.3,25z"/>
		<path class="st0" d="M90.1,12h-2.8c-0.3,0-0.5,0.2-0.5,0.5v0V14c-1.4-1.5-3.4-2.4-5.5-2.4c-4.4,0-7.9,3.8-7.9,8.4s3.5,8.4,7.9,8.4
			c2.1,0,4.1-0.9,5.5-2.4v1.5c0,0.3,0.2,0.5,0.5,0.5l0,0h2.8c0.3,0,0.5-0.2,0.5-0.5v0v-15C90.6,12.2,90.3,12,90.1,12z M82,25
			c-2.7,0-4.8-2.3-4.8-5s2.2-5,4.8-5c2.6,0,4.8,2.2,4.8,5v0.1C86.8,22.8,84.7,25,82,25L82,25z"/>
		<path class="st0" d="M104.1,11.6c-2.1,0-4.1,0.9-5.5,2.4v-1.5c0-0.3-0.2-0.5-0.5-0.5l0,0h-2.8c-0.3,0-0.5,0.2-0.5,0.5v0V34
			c0,0.3,0.2,0.5,0.5,0.5l0,0h2.8c0.3,0,0.5-0.2,0.5-0.5v0v-8c1.4,1.5,3.4,2.4,5.5,2.4c4.4,0,7.9-3.8,7.9-8.4S108.4,11.6,104.1,11.6
			z M103.4,25c-2.6,0-4.8-2.2-4.8-5v-0.1c0-2.8,2.2-5,4.8-5c2.7,0,4.8,2.3,4.8,5S106.1,25,103.4,25L103.4,25z"/>
		<path class="st0" d="M65.1,11.6c-2.1,0-4,1.2-4.9,3.1c-1-1.9-3.1-3.2-5.3-3.1c-1.7,0-3.3,0.8-4.3,2.2v-1.3c0-0.3-0.2-0.5-0.5-0.5
			l0,0h-2.8c-0.3,0-0.5,0.2-0.5,0.5v0v15c0,0.3,0.2,0.5,0.5,0.5h0h2.8c0.3,0,0.5-0.2,0.5-0.5v0v-9c0.1-2,1.5-3.6,3.2-3.6
			c1.8,0,3.3,1.5,3.3,3.4v9.2c0,0.3,0.2,0.5,0.5,0.5l2.8,0c0.3,0,0.5-0.2,0.5-0.5c0,0,0,0,0,0l0-9.4c0.2-1.8,1.6-3.2,3.2-3.2
			c1.8,0,3.3,1.5,3.3,3.4v9.2c0,0.3,0.2,0.5,0.5,0.5l2.8,0c0.3,0,0.5-0.2,0.5-0.5c0,0,0,0,0,0l0-10.3C70.9,14.1,68.3,11.6,65.1,11.6
			z"/>
		<path class="st0" d="M165.9,27.3l-4.9-7.4l4.8-7.3c0.1-0.2,0.1-0.5-0.1-0.6c-0.1,0-0.1-0.1-0.2-0.1h-3.2c-0.2,0-0.5,0.1-0.6,0.3
			l-2.8,4.7l-2.8-4.7c-0.1-0.2-0.4-0.3-0.6-0.3h-3.2c-0.2,0-0.4,0.2-0.4,0.4c0,0.1,0,0.2,0.1,0.2l4.8,7.3l-4.9,7.4
			c-0.1,0.2-0.1,0.5,0.1,0.6c0.1,0,0.1,0.1,0.2,0.1h3.2c0.2,0,0.5-0.1,0.6-0.3l2.9-4.8l2.9,4.8c0.1,0.2,0.4,0.3,0.6,0.3h3.2
			c0.2,0,0.4-0.2,0.4-0.4C166,27.5,166,27.4,165.9,27.3z"/>
	</g>
	<g>
		<path class="st0" d="M19.6,1.4C9.3,1.4,1,9.7,1,20s8.3,18.6,18.6,18.6S38.1,30.3,38.1,20C38.1,9.7,29.8,1.4,19.6,1.4z M28.4,24.6
			c-6.4,6.4-17.7,4.3-17.7,4.3s-2-11.3,4.3-17.7c3.5-3.5,9.4-3.4,13.1,0.3S31.9,21,28.4,24.6L28.4,24.6z"/>
		<polygon class="st0" points="21.7,12.3 19.9,16.1 16.1,17.9 19.9,19.7 21.7,23.4 23.5,19.7 27.3,17.9 23.5,16.1 		"/>
	</g>
</g>
</svg>
