<?xml version="1.0" standalone="no"?>
<!DOCTYPE svg PUBLIC "-//W3C//DTD SVG 20010904//EN"
 "http://www.w3.org/TR/2001/REC-SVG-20010904/DTD/svg10.dtd">
<svg version="1.0" xmlns="http://www.w3.org/2000/svg"
 width="196.000000pt" height="196.000000pt" viewBox="0 0 196.000000 196.000000"
 preserveAspectRatio="xMidYMid meet">
<metadata>
Created by potrace 1.11, written by Peter Selinger 2001-2013
</metadata>
<g transform="translate(0.000000,196.000000) scale(0.100000,-0.100000)"
fill="#000000" stroke="none">
<path d="M928 1935 c-2 -1 -32 -5 -68 -8 -307 -28 -611 -251 -749 -548 -103
-222 -112 -503 -26 -734 115 -304 380 -532 700 -601 98 -22 260 -23 367 -4
338 62 626 311 733 635 39 118 48 175 48 315 -1 252 -98 484 -278 665 -171
170 -392 267 -633 278 -50 3 -92 3 -94 2z m282 -395 c133 -39 251 -144 309
-271 34 -75 45 -130 43 -217 -3 -125 -45 -218 -142 -313 -109 -108 -243 -171
-439 -209 -118 -23 -431 -24 -453 -2 -15 15 -19 340 -5 427 27 171 103 343
198 448 82 90 172 141 274 154 22 3 41 6 43 8 8 7 116 -8 172 -25z"/>
<path d="M1040 1275 l-44 -93 -93 -44 c-51 -23 -93 -45 -93 -48 0 -3 42 -26
93 -50 l92 -45 46 -93 c51 -107 47 -107 104 14 l38 82 71 32 c134 60 133 55
24 107 l-95 45 -42 89 c-23 49 -45 91 -49 93 -4 2 -28 -38 -52 -89z"/>
</g>
</svg>
