<svg id="35678098-306c-4fc0-98e4-9fb055db7f9a" data-name="Layer 1" xmlns="http://www.w3.org/2000/svg" width="28" height="40" viewBox="0 0 28 40"><title>locate-map</title><path id="9b4afb48-1b93-48af-ae04-905bf98570a6" data-name="Layer 7" d="M14,40,13,38.68C10.41,35.49,0,21.13,0,14.16A13.51,13.51,0,0,1,12.82,0H14A13.48,13.48,0,0,1,28,13q0,.6,0,1.2c0,5.92-7.07,16.36-12.39,23.69Z" fill="#44346c"/><path id="1a7fda26-ff48-4973-aabc-e265c51952a9" data-name="rect6507" d="M6.87,8.86a.48.48,0,0,0-.51.51V19a.48.48,0,0,0,.51.51A.48.48,0,0,0,7.38,19V17.52H20.62V19a.48.48,0,0,0,.51.51.48.48,0,0,0,.51-.51V17a.48.48,0,0,0-.51-.51H7.38V9.37A.48.48,0,0,0,6.87,8.86Zm3.06.51A1.56,1.56,0,0,0,8.4,10.89h0a1.56,1.56,0,0,0,1.53,1.53h0a1.56,1.56,0,0,0,1.52-1.53h0A1.56,1.56,0,0,0,9.93,9.37Zm3.56,1A1.5,1.5,0,0,0,12,11.91v1.53H8.91A.48.48,0,0,0,8.4,14v1a.48.48,0,0,0,.51.51H21.64V12.93a2.5,2.5,0,0,0-2.55-2.55Z" fill="#fff"/></svg>