<svg xmlns="http://www.w3.org/2000/svg" viewBox="0 0 329.04 67.94"><defs><style>.cls-1{fill:#0070f4;}.cls-2{fill:#dbdbdb;}.cls-3{fill:#ff7c65;}</style></defs><title>Asset 1</title><g id="Layer_2" data-name="Layer 2"><g id="Layer_1-2" data-name="Layer 1"><path class="cls-1" d="M86.12,7.11a5.36,5.36,0,0,0-3.84,1.66V3.2A.32.32,0,0,0,82,2.88H80a.32.32,0,0,0-.32.32V18.25a.32.32,0,0,0,.32.32h2a.32.32,0,0,0,.32-.32h0v-1a5.35,5.35,0,0,0,3.84,1.65A5.7,5.7,0,0,0,91.64,13,5.71,5.71,0,0,0,86.12,7.11Zm-.46,9.4A3.45,3.45,0,0,1,82.28,13V13A3.38,3.38,0,1,1,89,13a3.45,3.45,0,0,1-3.37,3.52Z"/><path class="cls-1" d="M98.84,7.11a5.88,5.88,0,1,0,6,5.88A5.93,5.93,0,0,0,98.84,7.11Zm0,9.4A3.45,3.45,0,0,1,95.44,13a3.38,3.38,0,1,1,6.75,0,3.45,3.45,0,0,1-3.37,3.52Z"/><path class="cls-1" d="M62.3,7.4H60.35a.33.33,0,0,0-.33.33h0v1a5.34,5.34,0,0,0-3.83-1.66A5.71,5.71,0,0,0,50.66,13a5.71,5.71,0,0,0,5.53,5.87A5.33,5.33,0,0,0,60,17.21v1a.32.32,0,0,0,.33.32H62.3a.32.32,0,0,0,.33-.32h0V7.73A.33.33,0,0,0,62.3,7.4Zm-5.65,9.11A3.45,3.45,0,0,1,53.27,13,3.38,3.38,0,1,1,60,13V13a3.44,3.44,0,0,1-3.37,3.48Z"/><path class="cls-1" d="M72.09,7.11a5.34,5.34,0,0,0-3.84,1.66v-1a.33.33,0,0,0-.33-.33H66a.33.33,0,0,0-.33.33h0V22.78a.33.33,0,0,0,.33.32h2a.33.33,0,0,0,.33-.32h0V17.21a5.33,5.33,0,0,0,3.84,1.65A5.71,5.71,0,0,0,77.61,13,5.71,5.71,0,0,0,72.09,7.11Zm-.47,9.4A3.44,3.44,0,0,1,68.25,13V13A3.38,3.38,0,1,1,75,13a3.45,3.45,0,0,1-3.38,3.52Z"/><path class="cls-1" d="M44.81,7.11A3.84,3.84,0,0,0,41.39,9.3,4.13,4.13,0,0,0,37.7,7.11a3.77,3.77,0,0,0-3,1.55V7.72a.32.32,0,0,0-.33-.32h-2a.32.32,0,0,0-.33.32h0V18.25a.32.32,0,0,0,.33.32h2a.32.32,0,0,0,.33-.32h0V12a2.46,2.46,0,0,1,2.25-2.52,2.32,2.32,0,0,1,2.27,2.4v6.42a.32.32,0,0,0,.32.32h2a.32.32,0,0,0,.33-.32h0V11.7A2.42,2.42,0,0,1,44,9.43a2.32,2.32,0,0,1,2.28,2.4v6.42a.32.32,0,0,0,.32.32h2a.32.32,0,0,0,.32-.32h0V11A4,4,0,0,0,44.81,7.11Z"/><path class="cls-1" d="M115.34,18.12,111.94,13l3.36-5.11a.29.29,0,0,0-.08-.4.33.33,0,0,0-.16,0H112.8a.49.49,0,0,0-.42.24l-2,3.31-2-3.31A.48.48,0,0,0,108,7.4h-2.25a.29.29,0,0,0-.29.29.27.27,0,0,0,0,.16L108.87,13l-3.39,5.16a.3.3,0,0,0,.08.41.29.29,0,0,0,.16,0H108a.5.5,0,0,0,.42-.23l2-3.37,2,3.37a.49.49,0,0,0,.42.23h2.25a.29.29,0,0,0,.29-.29A.29.29,0,0,0,115.34,18.12Z"/><path class="cls-1" d="M13,0A13,13,0,1,0,26,13,13,13,0,0,0,13,0Zm6.16,16.17c-4.45,4.45-12.37,3-12.37,3s-1.42-7.92,3-12.36a6.47,6.47,0,0,1,9.14.2,6.48,6.48,0,0,1,.21,9.14Z"/><polygon class="cls-1" points="14.48 7.61 13.2 10.23 10.59 11.5 13.2 12.77 14.48 15.39 15.75 12.77 18.36 11.5 15.75 10.23 14.48 7.61"/><path class="cls-2" d="M136.59,67.44h-4.81V33.07h4.81Z"/><path class="cls-2" d="M180.69,56.16a11.91,11.91,0,0,1-23.82,0,11.91,11.91,0,0,1,23.82,0Zm-18.92.05a6.93,6.93,0,0,0,7,7.29,7,7,0,0,0,7-7.29,7,7,0,1,0-14,0Z"/><path class="cls-2" d="M219.14,49.66l-3.39,2.66a7.16,7.16,0,0,0-6.05-3.44,7,7,0,0,0-7,7.28,7,7,0,0,0,7,7.34,7.24,7.24,0,0,0,6.05-3.39l3.39,2.61a10.86,10.86,0,0,1-9.48,5.22,11.75,11.75,0,1,1,0-23.5A10.74,10.74,0,0,1,219.14,49.66Z"/><path class="cls-2" d="M257.83,44.94v22.5h-4.67V64.55a9.68,9.68,0,0,1-7.7,3.39c-6.37,0-11-5-11-11.73s4.58-11.77,11-11.77a9.42,9.42,0,0,1,7.88,3.71V44.94Zm-4.76,11.27c0-5.13-3.44-7.38-6.78-7.38-3.9,0-6.92,3.07-6.92,7.38s3,7.33,6.92,7.33C249.63,63.54,253.07,61.3,253.07,56.21Z"/><path class="cls-2" d="M286.9,49v18.4h-4.67V49H277V44.8h5.23V36.41h4.67V44.8h5.51V49Z"/><path class="cls-2" d="M328.67,57.77H311.9c.65,3.71,3.49,5.91,7.33,5.91A9.58,9.58,0,0,0,325.79,61l2.29,3.3a12.83,12.83,0,0,1-9,3.62c-7,0-12.1-5.09-12.1-11.73a11.57,11.57,0,0,1,11.64-11.77A10.06,10.06,0,0,1,329,54.74,14.05,14.05,0,0,1,328.67,57.77ZM312,54h12.23a5.46,5.46,0,0,0-5.77-5.5A6.59,6.59,0,0,0,312,54Z"/><path class="cls-3" d="M19.67,64.14v3.13H3.56v-.81l8-8.62c2.29-2.42,3.58-4.12,3.58-6.16a3.69,3.69,0,0,0-3.75-4,3.81,3.81,0,0,0-3.81,4.08,12.09,12.09,0,0,0,.17,1.74H4.11a8.22,8.22,0,0,1-.24-1.94,7.27,7.27,0,0,1,7.56-7.18c4.32,0,7.45,3,7.45,7,0,3.26-2.14,5.78-4.76,8.54l-3.95,4.19Z"/><path class="cls-3" d="M46.8,55.83c0,6.44-2.62,11.82-8.54,11.82s-8.58-5.38-8.58-11.82,2.72-11.4,8.58-11.4S46.8,49.33,46.8,55.83Zm-13.38,0c0,5,1.36,8.47,4.84,8.47s4.8-3.43,4.8-8.47-1.37-8.14-4.8-8.14S33.42,50.9,33.42,55.87Z"/><path class="cls-3" d="M64.88,44.8V67.27H61.27V49.06l-4.56,1.46-.89-3.17,7.8-2.55Z"/><path class="cls-3" d="M92.49,61.42c0,3.78-3.34,6.23-8.14,6.23s-8.2-2.45-8.2-6.23c0-3,2.07-4.8,4.87-5.83-2.32-1.22-3.82-2.89-3.82-5.41,0-3.74,3.17-5.75,7.15-5.75s7.09,2,7.09,5.75c0,2.45-1.4,4.15-3.82,5.41C90.28,56.58,92.49,58.35,92.49,61.42Zm-3.64-.14c0-2.21-1.94-3.2-4.53-4.12-2.59.92-4.53,1.94-4.53,4.12,0,2,1.57,3.37,4.56,3.37S88.85,63.25,88.85,61.28Zm-8.21-11c0,1.77,1.43,2.65,3.68,3.64C86.57,53,88,52.12,88,50.32s-1.6-2.93-3.65-2.93S80.64,48.44,80.64,50.32Z"/></g></g></svg>