<svg xmlns="http://www.w3.org/2000/svg" viewBox="0 0 61.85 71.83"><defs><style>.cls-1{isolation:isolate;}.cls-2{fill:#fff;}.cls-3{fill:#4264fb;mix-blend-mode:multiply;}</style></defs><title>Asset 2</title><g class="cls-1"><g id="Layer_2" data-name="Layer 2"><g id="Layer_1-2" data-name="Layer 1"><path class="cls-2" d="M50.18,8.61A29.39,29.39,0,0,0,8.61,50.18L29.39,71,50.18,50.18A29.39,29.39,0,0,0,50.18,8.61Z"/><path class="cls-3" d="M54.47,11.55A29.39,29.39,0,1,0,9.4,49.29L28.27,71.83,50.8,53A29.38,29.38,0,0,0,54.47,11.55ZM39.87,39.89a12.36,12.36,0,1,1,1.54-17.41A12.34,12.34,0,0,1,39.87,39.89Z"/><path class="cls-3" d="M27.47,60c.08.13.17.27.24.41.17.4.12.7-.16.84a1,1,0,0,1-.65.17c-.66-.25-1.29-.57-1.89-.84l-2.09,1.21a1.31,1.31,0,0,0,.59,1.69c.41.24.68.69,1.2.75a.86.86,0,0,0,.23,0c1-.61,2.14-1,2.78-2.15.19-.34.7-.27,1.11-.17a.56.56,0,0,1,.42.72,4.72,4.72,0,0,1-.51.8c-.26.3-.57.54-.82.84a.41.41,0,0,0,0,.41.48.48,0,0,0,.42.12,1.69,1.69,0,0,0,.56-.41c.22-.22.37-.61.62-.7a2.74,2.74,0,0,0,1.82-1.75.28.28,0,0,1,.17-.15,2,2,0,0,1,.68-.05c.43.11.56.54.81.84a.42.42,0,0,0,.63.07,2.91,2.91,0,0,1,2.53-1.07l-.06-.06a2,2,0,0,0-.06.47,1.35,1.35,0,0,1-1,1.63c-.63.18-.73.77-.88,1.3l0,0a3,3,0,0,1-2-.6.78.78,0,0,0-.44-.11.23.23,0,0,0-.19.1c-.05.14-.14.37-.09.42.29.26.66.45.93.73a.78.78,0,0,1,.2.63.9.9,0,0,1-1.36.44,3.89,3.89,0,0,1-.46-.53c-.61-.73-.8-.73-1.46,0-.16.18-.28.38-.45.55a.75.75,0,0,1-.88.08c-.19-.14-.33-.35-.52-.49a.73.73,0,0,0-1.05.1,3.43,3.43,0,0,0-.39.6l0,0c-1.49.24-1.73.09-1.95-1.24a1.58,1.58,0,0,0-.2-.42l-.91-.17a1,1,0,0,1-.82-.75c-.3-.78-.56-.83-1.14-.27-.18.16-.31.36-.48.52s-.16,0-.23,0-.17-.1-.16-.14c.05-.55.11-1.09.2-1.63a.66.66,0,0,1,.28-.38,8.75,8.75,0,0,0,1.4-.89,9.82,9.82,0,0,0,1.1-1.5c.91-.24,1.07-1.1,1.48-1.77l-.05,0a1.73,1.73,0,0,1,1.59,1.13,1.38,1.38,0,0,0,1.31.8ZM26,64.72l.15.13-.05.05Z"/><path class="cls-3" d="M16,53.38a2.32,2.32,0,0,1,2,.57.2.2,0,0,0,.2,0c.07-.13.18-.3.14-.41-.12-.37-.32-.71-.45-1.08a.72.72,0,0,1,.41-.78c.37-.11.76-.15,1.15-.23l-.05,0a11.79,11.79,0,0,0,.12,1.18c.05.2.24.53.37.54.72,0,1,.7,1.6.9.09,0,.26-.12.37-.22a.22.22,0,0,0,0-.22,4.87,4.87,0,0,1-.57-.41.85.85,0,0,1,.22-1.4.7.7,0,0,1,.86.1c.1.13.25.26.26.39a1.42,1.42,0,0,0,1.15,1.32.66.66,0,0,1,.31.82,1.13,1.13,0,0,1-.5.42,4.53,4.53,0,0,1-.89.18c0,.74,0,1.38-.75,1.68a1.27,1.27,0,0,0-.39.26.79.79,0,0,0,0,1.07c.19.13.42.22.62.35.74.47.8,1,.11,1.46A2.42,2.42,0,0,0,21.06,61a1.17,1.17,0,0,1-1.57.69,1.78,1.78,0,0,0-1.16,0,.51.51,0,0,1-.7-.39c-.05-.94-.1-1.87-.14-2.71-.58-.39-1.13-.71-1.61-1.1A1.81,1.81,0,0,0,14.12,57a.8.8,0,0,1-.46,0,.73.73,0,0,1-.28-.32c0-.05,0-.19,0-.21a4,4,0,0,0,1.74-1.17c.22-.3.72-.21,1.06.11.17.17.29.38.45.55a.41.41,0,0,0,.61-.08c.11-.22.17-.48,0-.65a2.2,2.2,0,0,0-.63-.32A1,1,0,0,1,16,53.8c0-.16,0-.32,0-.48Zm3.88,3.24c.67-.23.86-.52.77-1.17-.05-.29-.31-.46-.69-.46a.44.44,0,0,0-.46.41c0,.45,0,.92,0,1.38l-.59.13c.06,0,.12.07.16.05a3.85,3.85,0,0,0,.38-.23A3.69,3.69,0,0,0,19.85,56.62Zm-.2,2.56a.48.48,0,0,0,.55.55.55.55,0,0,0,.42-.71c-.08-.16-.32-.24-.55-.39C19.9,58.85,19.69,59,19.65,59.18Z"/><path class="cls-3" d="M12.68,46.59v.47c0,.5.15.93.73,1a3.93,3.93,0,0,1,.66.22.47.47,0,0,1,.21.6c-.1.38-.2.8-.58,1-.55.27-.71.81-1,1.23s-.7.61-1,.94a.71.71,0,0,0,.23,1,.49.49,0,0,0,.23.06,1,1,0,0,1,1.08.68.67.67,0,0,0,1.16.19,3.21,3.21,0,0,1,1.71-.7l-.06.06.5-2,.05,0a2.57,2.57,0,0,1-1.57-.4c-.11-.1-.28-.26-.26-.36s.18-.52.32-.55A1.56,1.56,0,0,0,16.4,49c.1-.34.41-.45.7-.58l.84-.41,0,.05c-.07-.14-.13-.29-.21-.42-.61-1.09-1.34-1.09-2,0-.22.37-.54.44-.72.11a2.1,2.1,0,0,0-2.35-1.14Z"/><path class="cls-3" d="M35.6,60.16A8.48,8.48,0,0,0,36,59.3a.75.75,0,0,0-.22-.86c-.3-.25-.65-.44-1-.67a.64.64,0,0,1,.11-1.15,4.07,4.07,0,0,1,.44-.18c.29-.14.61-.26.52-.67a1.06,1.06,0,0,0-.78-.82.56.56,0,0,0-.43.06c-.25.3-.43.65-.66,1a.82.82,0,0,1-1.07.11c-.28-.27-.5-.6-.77-.89a.7.7,0,0,0-.87,0,.61.61,0,0,0-.11.85,1.21,1.21,0,0,0,.52.44c.5.12.88.3,1,.85.06.22.17.54.34.6a2.27,2.27,0,0,1,1.17,1.42c.26.6.83.67,1.4.7Z"/><path class="cls-3" d="M27.56,54.75v2l-.05,0a3.69,3.69,0,0,1,.47,0,1.49,1.49,0,0,1,1.35.78,1.22,1.22,0,0,0,1.59.64l-.05,0c.21-.64.24-1.28-.49-1.56a1.38,1.38,0,0,1-1-1.07.8.8,0,0,0-.7-.52l-1.13-.22Z"/><path class="cls-3" d="M47.19,24.56a1.33,1.33,0,0,0-.26-1.12c-.17-.18-.39-.32-.62-.2a7.86,7.86,0,0,1-1.86,1c-.56.14-.72,1.17-.37,1.65a.87.87,0,0,0,1.27.08,6.81,6.81,0,0,0,.59-1.12l1.29-.31Z"/><path class="cls-3" d="M27.55,56.75a5.29,5.29,0,0,0-.69-.15.83.83,0,0,1-.79-.73,1.91,1.91,0,0,0-.33-.61A.78.78,0,0,0,24.9,55a.9.9,0,0,0-.63.64.78.78,0,0,0,.35.8,3.6,3.6,0,0,1,1.64,1.63c.22.41,1,.26,1.14-.21a6.23,6.23,0,0,0,.1-1.15Z"/><path class="cls-3" d="M54,34.58c-.46.75-.93,1.49-1.38,2.23a.59.59,0,0,0,.26.8.76.76,0,0,0,.86-.21A1.67,1.67,0,0,0,53.9,37a.85.85,0,0,1,.56-.7,4.8,4.8,0,0,0,.67-.23,1.28,1.28,0,0,0,.44-.51c.11-.24-.15-.66-.46-.73a9.13,9.13,0,0,0-1.17-.15Z"/><path class="cls-3" d="M29.46,53.33a4.3,4.3,0,0,0-.15.92.6.6,0,0,0,.9.42,19.77,19.77,0,0,1,2-1.62c.19-.12.24-.55.28-.85s-.35-.6-.64-.57-.88.13-.94.56c-.13.94-.8,1.06-1.52,1.19Z"/><path class="cls-3" d="M27,9.64l1.64.17c.06.29.11.52.15.76.14.72.85.72,1.28.36.2-.18.3-.69.12-.86-.62-.6-1.24-1.2-1.88-1.76a.79.79,0,0,0-1.15.44,7.31,7.31,0,0,0-.11.94Z"/><path class="cls-3" d="M32.3,13.06v-2l.05.05c-1.6.11-1.84.34-1.93,1.89l-.06,0a5.82,5.82,0,0,1,.67.22,1.23,1.23,0,0,0,1.32-.2Z"/><path class="cls-3" d="M54.81,33a.77.77,0,0,0,.78-.74.82.82,0,0,0-.91-.85.73.73,0,0,0-.77.73A.8.8,0,0,0,54.81,33Z"/><path class="cls-3" d="M20.78,50l.94,0a.71.71,0,0,0,.7-.51,1,1,0,0,0-.51-1.17,5.92,5.92,0,0,0-1.13-.17l0,0a2.24,2.24,0,0,0,0,2Z"/><path class="cls-3" d="M29.4,53.38a.92.92,0,0,0,.05-1.11,5.39,5.39,0,0,0-.87-.78.27.27,0,0,0-.23,0,1,1,0,0,0-.72.86.87.87,0,0,0,.64.89,9.39,9.39,0,0,0,1.19.08Z"/><path class="cls-3" d="M26.06,53.38c0-.07,0-.15,0-.22,0-1.33-.24-1.66-1.5-1.73a3.42,3.42,0,0,0-.46,0l.05,0a6.92,6.92,0,0,0,0,.91,1.1,1.1,0,0,0,1.23,1,5.17,5.17,0,0,0,.68,0Z"/><path class="cls-3" d="M60.67,34.58c0-.15,0-.3,0-.45A1.08,1.08,0,0,0,59.82,33l-.63-.22,0-.06-.54.54.05,0c.07.22.13.45.22.66a1.18,1.18,0,0,0,1.3.77,4,4,0,0,0,.46-.08Z"/><path class="cls-3" d="M50.54,33.16l1.45,0,0,0a10.74,10.74,0,0,0,.27-1.12.76.76,0,0,0-.64-.83.85.85,0,0,0-1,.76c0,.38,0,.77,0,1.16Z"/><path class="cls-3" d="M18,43.28c.23-.06.47-.11.69-.19.66-.25.73-.36.73-1.05,0-.24,0-.48-.05-.72l.06.06a3.62,3.62,0,0,0-.47,0c-1.21.12-1.46.54-1,1.72a1.89,1.89,0,0,0,.09.21Z"/><path class="cls-3" d="M59.19,32.74a3,3,0,0,0-.5-1.27.78.78,0,0,0-1.19.15,1,1,0,0,0,.56,1.49,3,3,0,0,0,.68.07l-.05,0,.54-.54Z"/><path class="cls-3" d="M16,44.73,14.87,45a.74.74,0,0,0-.64.59,1.16,1.16,0,0,0,.69,1.12.82.82,0,0,0,.83-.25A1.81,1.81,0,0,0,16,44.67Z"/><path class="cls-3" d="M47.19,29.82c.44-.13.89-.23,1.32-.4a.69.69,0,0,0,.11-1.15.84.84,0,0,0-1.42.46,8.75,8.75,0,0,0,0,1.14Z"/><path class="cls-3" d="M30.91,58.13a5,5,0,0,0,0,.95.91.91,0,0,0,1.25.72.79.79,0,0,0,.56-.7.85.85,0,0,0-.45-.79,2.33,2.33,0,0,0-1.41-.14Z"/><path class="cls-3" d="M16,13.56a2.29,2.29,0,0,0-.75-1.7.56.56,0,0,0-.65-.12.69.69,0,0,0-.33.8,1,1,0,0,0,.62.68A11.33,11.33,0,0,0,16,13.5Z"/><path class="cls-3" d="M50.61,17.8a3.2,3.2,0,0,0-.16.68c-.05.75.4,1.11,1.2,1a.58.58,0,0,0,.48-.68c-.11-.6-.33-.86-.87-1a3.32,3.32,0,0,0-.7,0Z"/><path class="cls-3" d="M53.9,29.33c.68.39,1.34.08,2-.06l0,.05c-.07-.31-.13-.61-.2-.91a.71.71,0,0,0-.63-.58.94.94,0,0,0-1,.42,1.26,1.26,0,0,0-.08,1.12Z"/><path class="cls-3" d="M44.69,19.48a.76.76,0,0,0,.86-.63.9.9,0,0,0-.68-.86.8.8,0,0,0-1,.75A.81.81,0,0,0,44.69,19.48Z"/><path class="cls-3" d="M20.88,45.89a.86.86,0,0,0,.79.68.82.82,0,0,0,.8-.92.71.71,0,0,0-.74-.7A1,1,0,0,0,20.88,45.89Z"/><path class="cls-3" d="M9.76,45.17c.22-.07.45-.12.67-.21a.74.74,0,0,0,.5-.93c-.09-.49-.3-.76-.72-.8a4.86,4.86,0,0,0-.93,0h0l0,1.44-.06,0,.54.55Z"/><path class="cls-3" d="M24.14,50a9,9,0,0,0,1.38-.21.64.64,0,0,0,.14-1.13.86.86,0,0,0-1.46.47,3.62,3.62,0,0,0,0,.93Z"/><path class="cls-3" d="M54.05,21.89a.8.8,0,1,0,1.59.17c0-.35-.27-.67-.72-.73A.75.75,0,0,0,54.05,21.89Z"/><path class="cls-3" d="M4.13,38.85a.56.56,0,0,0,0,.23,1.36,1.36,0,0,0,.94.64,1.1,1.1,0,0,0,.63-.16.65.65,0,0,0,.17-.84,1,1,0,0,0-1.74-.08A.72.72,0,0,0,4.13,38.85Z"/><path class="cls-3" d="M11.27,37.93a6.41,6.41,0,0,0-.12,1.15,1.14,1.14,0,0,0,.35.59.69.69,0,0,0,.87,0c.28-.37.53-.76.79-1.15l.06.05-2-.57Z"/><path class="cls-3" d="M44.87,33c.36,0,.73-.32.71-.59a1,1,0,0,0-.27-.6.75.75,0,0,0-1.05,0,.57.57,0,0,0,.05,1A4.25,4.25,0,0,0,44.87,33Z"/><path class="cls-3" d="M50.59,27.88A1.44,1.44,0,0,0,51,29.39a.82.82,0,0,0,.63.16.77.77,0,0,0,.42-.49A.79.79,0,0,0,51.48,28a4.8,4.8,0,0,0-.93,0Z"/><path class="cls-3" d="M50.55,27.93c0-.39,0-.78,0-1.16a.8.8,0,0,0-.67-.57.77.77,0,0,0-.7.5c-.29.79,0,1.24.76,1.26a.91.91,0,0,0,.23,0l.46-.07Z"/><path class="cls-3" d="M50.62,24c0,.47-.07.94-.08,1.41a.69.69,0,0,0,.8.66c.56,0,1-.46.88-.87a.94.94,0,0,0-.37-.57,13.43,13.43,0,0,0-1.28-.57Z"/><path class="cls-3" d="M50.57,24.05a5,5,0,0,0-.39-.85.8.8,0,0,0-1.24,0,.54.54,0,0,0,0,.65,1.17,1.17,0,0,0,1.69.12Z"/><path class="cls-3" d="M15.47,10.2a11,11,0,0,0,.13-1.14A.73.73,0,0,0,15,8.42a.8.8,0,0,0-.76.4,1.44,1.44,0,0,0-.14.43c0,.31,0,.62,0,.93l0,0h1.47Z"/><path class="cls-3" d="M17.5,8.82a1,1,0,0,0,.74,1,.67.67,0,0,0,.44-.13.73.73,0,0,0,.1-1,.73.73,0,0,0-1-.25A1.64,1.64,0,0,0,17.5,8.82Z"/><path class="cls-3" d="M14.1,15.69c0,.46.63.9,1,.67a2.24,2.24,0,0,0,.64-.66.5.5,0,0,0-.36-.71,1.22,1.22,0,0,0-1.1.29A1.2,1.2,0,0,0,14.1,15.69Z"/><path class="cls-3" d="M37.85,16.22a.78.78,0,0,0,.69-1.14.66.66,0,0,0-.34-.27.7.7,0,0,0-.77.37.65.65,0,0,0,0,.84A1.36,1.36,0,0,0,37.85,16.22Z"/><path class="cls-3" d="M27.47,60a1.84,1.84,0,0,0,1.34-.33,1,1,0,0,0,.34-.83.62.62,0,0,0-.83-.55,1.14,1.14,0,0,0-.76.83,7.17,7.17,0,0,0,0,.93Z"/><path class="cls-3" d="M24.63,58.16a4.57,4.57,0,0,0-.3-.88,1.54,1.54,0,0,0-.51-.47.8.8,0,0,0-1,.31.73.73,0,0,0,.47.94,13.19,13.19,0,0,0,1.41.06Z"/><path class="cls-3" d="M19.39,48.1a2.12,2.12,0,0,0-1.49,0l0-.05a9.27,9.27,0,0,0-.14.92,1.51,1.51,0,0,0,.07.46.64.64,0,0,0,.95.31c.63-.43.6-1.05.52-1.69Z"/><path class="cls-3" d="M57.82,38.06a.62.62,0,0,0-.41.9,1,1,0,0,0,1.18.47.55.55,0,0,0,.35-.72A1.06,1.06,0,0,0,57.82,38.06Z"/><path class="cls-3" d="M17.71,45.56a6.44,6.44,0,0,0,.41.76.76.76,0,0,0,.86.16.68.68,0,0,0,.11-1,1.32,1.32,0,0,0-.5-.47,1,1,0,0,0-.64.09C17.84,45.14,17.81,45.35,17.71,45.56Z"/><path class="cls-3" d="M20.84,41.32a11.5,11.5,0,0,0,.08,1.17.83.83,0,0,0,.57.68.71.71,0,0,0,.74-.43.88.88,0,0,0-.34-1,1.62,1.62,0,0,0-.42-.2c-.22-.06-.46-.1-.69-.14Z"/><path class="cls-3" d="M41.53,41.59c-.44,0-.88.58-.79.95a1.06,1.06,0,0,0,.92.58,1.06,1.06,0,0,0,.63-.88A.69.69,0,0,0,41.53,41.59Z"/><path class="cls-3" d="M49.74,31.13c.31,0,.67-.23.67-.5a1,1,0,0,0-.22-.61.9.9,0,0,0-.59-.27A.8.8,0,0,0,49,30a.86.86,0,0,0,0,.63A.83.83,0,0,0,49.74,31.13Z"/><path class="cls-3" d="M4.46,32.42a.72.72,0,0,0,.93.71.88.88,0,0,0,.64-.6.77.77,0,0,0,0-.45.91.91,0,0,0-1-.31A.7.7,0,0,0,4.46,32.42Z"/><path class="cls-3" d="M24.81,6.4A2.58,2.58,0,0,0,25.42,6c.17-.17,0-.63-.21-.84a1.67,1.67,0,0,0-.4-.25.65.65,0,0,0-.82.28.69.69,0,0,0,.17.86A4.9,4.9,0,0,0,24.81,6.4Z"/><path class="cls-3" d="M28,4.88a.72.72,0,0,0-.82.63.76.76,0,0,0,.66.8.84.84,0,0,0,.84-.66A.72.72,0,0,0,28,4.88Z"/><path class="cls-3" d="M15.11,18.35a.75.75,0,0,0-.69.81.61.61,0,0,0,.64.57c.43,0,.85-.31.84-.66A.79.79,0,0,0,15.11,18.35Z"/><path class="cls-3" d="M14.16,39.23a.89.89,0,0,0,.86.65.84.84,0,0,0,.87-.87.55.55,0,0,0-.18-.39,1,1,0,0,0-1.45.18C14.18,38.9,14.19,39.09,14.16,39.23Z"/><path class="cls-3" d="M58.16,26a.7.7,0,0,0,.7-.47.67.67,0,0,0-.34-.77.83.83,0,0,0-1.05,0,.81.81,0,0,0-.17.6C57.37,25.8,57.7,26,58.16,26Z"/><path class="cls-3" d="M28.13,11.66a.91.91,0,0,0-.85.93.53.53,0,0,0,.41.5.84.84,0,0,0,1.07-.88A.61.61,0,0,0,28.13,11.66Z"/><path class="cls-3" d="M24.86,45.11a4.8,4.8,0,0,0-.61.17c-.27.11-.36.66-.14.81a2.84,2.84,0,0,0,.61.35.72.72,0,0,0,1-.4.67.67,0,0,0-.53-.88Z"/><path class="cls-3" d="M9.31,44.72c-.42.23-.85.44-1.24.7a.65.65,0,0,0-.13.86.66.66,0,0,0,1,.08c.29-.38.53-.79.79-1.19l0,.06-.54-.55Z"/><path class="cls-3" d="M24.12,51.47c0-.5,0-1,0-1.5l.06.06a6.07,6.07,0,0,0-.95,0,.74.74,0,0,0-.67.82.72.72,0,0,0,.64.62,7.57,7.57,0,0,0,1,0Z"/><path class="cls-3" d="M18.54,28.32a4.94,4.94,0,0,0-.7.2.59.59,0,0,0-.18.81.74.74,0,0,0,1.2.06.82.82,0,0,0,.16-.63C19,28.58,18.71,28.46,18.54,28.32Z"/><path class="cls-3" d="M44,22.29a.82.82,0,0,0,.62.64.75.75,0,0,0,.71-.79c0-.45-.36-.83-.72-.76A.88.88,0,0,0,44,22.29Z"/><path class="cls-3" d="M40.8,39.11a.86.86,0,0,0,1.23.23.41.41,0,0,0,.15-.17.81.81,0,0,0-.36-.81.68.68,0,0,0-.44-.1.72.72,0,0,0-.62.62A1,1,0,0,0,40.8,39.11Z"/><path class="cls-3" d="M11.22,38a4.25,4.25,0,0,0-.35-.88,1,1,0,0,0-.56-.35c-.28-.08-.58.15-.74.47a.61.61,0,0,0,.31.78,2.53,2.53,0,0,0,1.39-.08Z"/><path class="cls-3" d="M32.35,13a4,4,0,0,0,.06.92.77.77,0,0,0,1.12.47.78.78,0,0,0,.4-.51.76.76,0,0,0-.29-.57,1.79,1.79,0,0,0-1.34-.26Z"/><path class="cls-3" d="M51.57,38.24a.77.77,0,0,0-.82.45.47.47,0,0,0,.17.6,1,1,0,0,0,.88.12.53.53,0,0,0,.27-.88A2.05,2.05,0,0,0,51.57,38.24Z"/><path class="cls-3" d="M27.58,50.05a1.47,1.47,0,0,0-1.13.05.72.72,0,0,0-.37.78.54.54,0,0,0,.48.42.7.7,0,0,0,.77-.39,5.24,5.24,0,0,0,.19-.91Z"/><path class="cls-3" d="M24.51,9.69a.88.88,0,0,0,.87-.87.86.86,0,0,0-.62-.62.8.8,0,0,0-.84.88A.68.68,0,0,0,24.51,9.69Z"/><path class="cls-3" d="M29.42,50.69a.86.86,0,0,0,.84.65.65.65,0,0,0,.56-.61.82.82,0,0,0-.82-.66A.73.73,0,0,0,29.42,50.69Z"/><path class="cls-3" d="M26.11,53.33A3.29,3.29,0,0,0,26,54a.71.71,0,0,0,.65.81,4,4,0,0,0,.9-.07l0,0a2.85,2.85,0,0,0,0-.71.88.88,0,0,0-.79-.77,3.31,3.31,0,0,0-.7.06Z"/><path class="cls-3" d="M37.41,18.72a.89.89,0,0,0,1.18.74.5.5,0,0,0,.24-.35.81.81,0,0,0-.36-.78.68.68,0,0,0-.85,0C37.51,18.43,37.48,18.59,37.41,18.72Z"/><path class="cls-3" d="M22.28,6.25c0,.39,0,.77,0,1.16a.58.58,0,0,0,.68.48.86.86,0,0,0,.54-.35.6.6,0,0,0-.19-.83c-.34-.17-.72-.27-1.08-.41Z"/><path class="cls-3" d="M7.66,19.14a.76.76,0,0,0,.82.62.67.67,0,0,0,.57-.6.66.66,0,0,0-.66-.74A.78.78,0,0,0,7.66,19.14Z"/><path class="cls-3" d="M33.77,6.34a6.78,6.78,0,0,0-1.11.33.89.89,0,0,0-.33.55.66.66,0,0,0,.47.71.65.65,0,0,0,.64-.15A.92.92,0,0,0,33.82,7a4.13,4.13,0,0,0-.11-.69Z"/><path class="cls-3" d="M11.28,49.39c0,.37.61.71.9.47a2.13,2.13,0,0,0,.53-.75.45.45,0,0,0-.49-.59,2.72,2.72,0,0,0-.8.44C11.32,49,11.32,49.24,11.28,49.39Z"/><path class="cls-3" d="M40.74,18.81a2,2,0,0,0,.08.22c.18.36.45.5.75.4a.64.64,0,0,0,.43-.74.77.77,0,0,0-.62-.63A.6.6,0,0,0,40.74,18.81Z"/><path class="cls-3" d="M43.15,16.4c-.3,0-.68.16-.7.42a1.39,1.39,0,0,0,.15.63c.06.11.23.19.36.27a.55.55,0,0,0,.79-.49C43.75,16.75,43.54,16.46,43.15,16.4Z"/><path class="cls-3" d="M22.17,18.86a.66.66,0,0,0-.64-.56.68.68,0,0,0-.65.79.88.88,0,0,0,.65.59C21.87,19.7,22.2,19.27,22.17,18.86Z"/><path class="cls-3" d="M34.86,9.67a.68.68,0,0,0,.61-.58.8.8,0,0,0-.85-.86.73.73,0,0,0-.61.82A.79.79,0,0,0,34.86,9.67Z"/><path class="cls-3" d="M30.7,9.21c.1.1.24.31.43.37A.89.89,0,0,0,32.21,9a.66.66,0,0,0-.09-.43.7.7,0,0,0-.82-.25A.8.8,0,0,0,30.7,9.21Z"/><path class="cls-3" d="M11,15.9a.57.57,0,0,0,.67.5.77.77,0,0,0,.59-.24.66.66,0,0,0-.22-.83.91.91,0,0,0-.62-.16C11.11,15.2,10.93,15.58,11,15.9Z"/><path class="cls-3" d="M41.77,59.69a.62.62,0,0,0,.62-.54.83.83,0,0,0-.81-.9.67.67,0,0,0-.62.56A.79.79,0,0,0,41.77,59.69Z"/><path class="cls-3" d="M37.74,59.19a.73.73,0,0,0,.06.21.84.84,0,0,0,1.36-.16.61.61,0,0,0,0-.44.65.65,0,0,0-.75-.4A.74.74,0,0,0,37.74,59.19Z"/><path class="cls-3" d="M47.13,20.56a.74.74,0,0,0-.69-.79.67.67,0,0,0-.66.54.79.79,0,0,0,.7.8A.66.66,0,0,0,47.13,20.56Z"/><path class="cls-3" d="M21.27,11.75c-.37.06-.58.41-.53.9a.57.57,0,0,0,.61.55.71.71,0,0,0,.69-.77C22,11.93,21.68,11.69,21.27,11.75Z"/><path class="cls-3" d="M14.37,29.13a.68.68,0,0,0,.66.53c.36,0,.82-.34.82-.65a.82.82,0,0,0-.8-.66A.77.77,0,0,0,14.37,29.13Z"/><path class="cls-3" d="M9.28,43.27A1,1,0,0,0,9,42a.71.71,0,0,0-1,.08.72.72,0,0,0,.15,1,1.46,1.46,0,0,0,1.12.17Z"/><path class="cls-3" d="M24.12,43.23a5.78,5.78,0,0,0,.93-.13.71.71,0,0,0,.55-.88.73.73,0,0,0-.72-.46.72.72,0,0,0-.64.59c0,.31,0,.62-.06.93Z"/><path class="cls-3" d="M9.39,14.17a.73.73,0,0,0,.57.65c.39.07.62-.2.67-.75a.44.44,0,0,0-.37-.5A.76.76,0,0,0,9.39,14.17Z"/><path class="cls-3" d="M50.88,45.65a.61.61,0,0,0,.56.61.75.75,0,0,0,.8-.67.83.83,0,0,0-.46-.75C51.36,44.71,51,45.08,50.88,45.65Z"/><path class="cls-3" d="M6.21,34.29a1.89,1.89,0,0,0,.4.4.81.81,0,0,0,.87-.15.47.47,0,0,0,.13-.62.8.8,0,0,0-.94-.47C6.33,33.57,6.26,33.88,6.21,34.29Z"/><path class="cls-3" d="M18,43.33h-.71a1.11,1.11,0,0,0-1.18.93c0,.16-.07.31-.1.47L16,44.67c.23,0,.47.07.7.07a.88.88,0,0,0,.91-.6c.11-.29.25-.57.38-.86Z"/><path class="cls-3" d="M6.68,28.06a1.52,1.52,0,0,0,.52-.25.81.81,0,0,0,.29-.56.75.75,0,0,0-.41-.47.56.56,0,0,0-.77.28,2.17,2.17,0,0,0-.19.41A.47.47,0,0,0,6.68,28.06Z"/><path class="cls-3" d="M17.42,39.88c.31,0,.63,0,.95-.07a.71.71,0,0,0,.58-.67.85.85,0,0,0-.26-.61.55.55,0,0,0-.66,0,1,1,0,0,0-.55.73,4.33,4.33,0,0,0,0,.72Z"/><path class="cls-3" d="M8.47,38.43a5.29,5.29,0,0,0-.55.5c-.17.2-.06.44.07.63a.64.64,0,0,0,.8.22.81.81,0,0,0,.54-.9A.77.77,0,0,0,8.47,38.43Z"/><path class="cls-3" d="M14.19,32.69c-.06.24.32.59.59.54a1,1,0,0,0,.82-1.18.63.63,0,0,0-.54-.29A1,1,0,0,0,14.19,32.69Z"/><path class="cls-3" d="M11.92,31.75a.73.73,0,0,0-.65.8.68.68,0,0,0,.64.56.79.79,0,0,0,.68-.8A.83.83,0,0,0,11.92,31.75Z"/><path class="cls-3" d="M7.8,32.19a.88.88,0,0,0,.41.9.68.68,0,0,0,.85-.15.67.67,0,0,0,0-.86.79.79,0,0,0-.85-.27C8,31.87,7.89,32.1,7.8,32.19Z"/><path class="cls-3" d="M19.32,41.32h1.52l-.06.06a3.51,3.51,0,0,0-.08-.92.88.88,0,0,0-.49-.41.59.59,0,0,0-.72.41,5.64,5.64,0,0,0-.11.92Z"/><path class="cls-3" d="M8,29.22a.7.7,0,0,0,.64.55.74.74,0,0,0,.62-.6.67.67,0,0,0-.78-.63A.61.61,0,0,0,8,29.22Z"/><path class="cls-3" d="M14.45,42.37a3.44,3.44,0,0,0,.44.78.73.73,0,0,0,.63.09.74.74,0,0,0,.34-.53,1.36,1.36,0,0,0-.2-.65.56.56,0,0,0-.77-.27A2.65,2.65,0,0,0,14.45,42.37Z"/><path class="cls-3" d="M53.94,29.37a1.93,1.93,0,0,0-1.24.56,1.14,1.14,0,0,0-.18.64c0,.21.48.55.71.48a1.09,1.09,0,0,0,.56-.36,1.93,1.93,0,0,0,.11-1.36Z"/><path class="cls-3" d="M54,42.15a.76.76,0,0,0,1.52-.08.71.71,0,0,0-.66-.58A.83.83,0,0,0,54,42.15Z"/><path class="cls-3" d="M57.44,42.18a.71.71,0,0,0,.81.62.69.69,0,0,0,.6-.6.71.71,0,1,0-1.41,0Z"/><path class="cls-3" d="M33.71,6.28c.47,0,.95.12,1.35-.27a.62.62,0,0,0,.19-.82.77.77,0,0,0-1-.16c-.44.35-.34.86-.44,1.31Z"/><path class="cls-3" d="M30.64,5.41a.79.79,0,0,0,.65.83.76.76,0,0,0,.79-.68.93.93,0,0,0-.81-.71A.63.63,0,0,0,30.64,5.41Z"/><path class="cls-3" d="M33.94,12.4a.81.81,0,0,0,.93.55.82.82,0,0,0,.52-.95.66.66,0,0,0-.76-.41A.78.78,0,0,0,33.94,12.4Z"/><path class="cls-3" d="M12.63,46.65a2.22,2.22,0,0,0-.1-1.14.69.69,0,0,0-1.16,0,.8.8,0,0,0,0,.64c.26.64.79.65,1.35.48Z"/><path class="cls-3" d="M29,47.72c.1.11.17.29.29.33a1.79,1.79,0,0,0,.69,0,.63.63,0,0,0,.57-.82.72.72,0,0,0-1-.4,1.46,1.46,0,0,0-.53.43C29,47.39,29,47.57,29,47.72Z"/><path class="cls-3" d="M13.16,38.51a3.28,3.28,0,0,0,.56-.39,1.47,1.47,0,0,0,.35-.57.69.69,0,0,0-.35-.78.88.88,0,0,0-.64,0,.66.66,0,0,0-.38.76,6,6,0,0,0,.52,1Z"/><path class="cls-3" d="M14.25,25.86a.77.77,0,0,0,.91.55.81.81,0,0,0,.58-.89.67.67,0,0,0-.63-.58A1,1,0,0,0,14.25,25.86Z"/><path class="cls-3" d="M32,45a1,1,0,0,0-.94.71.55.55,0,0,0,.48.67.88.88,0,0,0,.91-.59.56.56,0,0,0,0-.44A2,2,0,0,0,32,45Z"/><path class="cls-3" d="M11.72,36.45a.66.66,0,0,0,.2-1.3.72.72,0,0,0-.75.68A.69.69,0,0,0,11.72,36.45Z"/><path class="cls-3" d="M35,45c-.13.09-.37.18-.47.35a.77.77,0,0,0,.15.87.45.45,0,0,0,.62.16,1,1,0,0,0,.42-.51C35.8,45.57,35.43,45.13,35,45Z"/><path class="cls-3" d="M7.89,35.79a.78.78,0,0,0,.58.66.67.67,0,0,0,.72-.72.76.76,0,0,0-.68-.56A.73.73,0,0,0,7.89,35.79Z"/><path class="cls-3" d="M47.34,15.4c-.09.28.1.53.51.67a.58.58,0,0,0,.8-.27.7.7,0,0,0-.43-1A.68.68,0,0,0,47.34,15.4Z"/><path class="cls-3" d="M6.63,38.22A5.31,5.31,0,0,0,7.32,38a.59.59,0,0,0,.24-.8.7.7,0,0,0-.8-.3.83.83,0,0,0-.56.9C6.24,37.93,6.48,38.07,6.63,38.22Z"/><path class="cls-3" d="M21.25,9.58a.87.87,0,0,0,.81-.67.7.7,0,0,0-.57-.62.75.75,0,0,0-.78.67A.58.58,0,0,0,21.25,9.58Z"/><path class="cls-3" d="M50.78,35.55a.69.69,0,0,0,.8.61.65.65,0,0,0,.51-.64.72.72,0,0,0-.8-.63A.7.7,0,0,0,50.78,35.55Z"/><path class="cls-3" d="M37.1,9.63A1.2,1.2,0,0,0,38.46,9c.1-.22.11-.49-.11-.61a.86.86,0,0,0-.62-.09.88.88,0,0,0-.46.47,4.44,4.44,0,0,0-.12.91Z"/><path class="cls-3" d="M40.62,8.73c.05.48.57.9,1,.73a.68.68,0,0,0,.32-.55.75.75,0,0,0-1.07-.55C40.74,8.42,40.69,8.6,40.62,8.73Z"/><path class="cls-3" d="M57.47,35.61c.09.12.15.28.27.36a.66.66,0,0,0,.83-.21.61.61,0,0,0,0-.85.51.51,0,0,0-.64-.07A.7.7,0,0,0,57.47,35.61Z"/><path class="cls-3" d="M50.6,33.22a4.53,4.53,0,0,0-.91.08.75.75,0,0,0-.53.89.51.51,0,0,0,.5.36.79.79,0,0,0,.71-.5,5.19,5.19,0,0,0,.17-.89Z"/><path class="cls-3" d="M52,33.2a1.76,1.76,0,0,0,2,1.38l-.05.06c-.09-.23-.16-.45-.26-.67-.35-.77-.5-.84-1.5-.77a.86.86,0,0,0-.23,0Z"/><path class="cls-3" d="M5.23,25a.68.68,0,0,0-.75.69.69.69,0,0,0,.46.71.77.77,0,0,0,.88-.82A.62.62,0,0,0,5.23,25Z"/><path class="cls-3" d="M9.53,24.1a.59.59,0,0,0,.63.5.57.57,0,0,0,.56-.59.64.64,0,0,0-.52-.65C9.81,23.34,9.54,23.63,9.53,24.1Z"/><path class="cls-3" d="M17.5,5.78c.23.35.55.48.78.32.39-.26.52-.75.24-1A.54.54,0,0,0,17.86,5C17.5,5.23,17.34,5.54,17.5,5.78Z"/><path class="cls-3" d="M47.23,24.52c0,.56,0,1.11.62,1.36a.56.56,0,0,0,.64-.09.63.63,0,0,0,0-.83c-.36-.4-.85-.34-1.3-.4Z"/><path class="cls-3" d="M5.2,29.73c.25-.17.51-.26.57-.42a.75.75,0,0,0-.13-.62.59.59,0,0,0-.82-.13.44.44,0,0,0-.23.57A3.15,3.15,0,0,0,5.2,29.73Z"/><path class="cls-3" d="M47.24,29.87c-.55-.08-1.1-.13-1.37.52A.45.45,0,0,0,46,31a.81.81,0,0,0,.63,0,1,1,0,0,0,.42-.51,2.64,2.64,0,0,0,.13-.68Z"/><path class="cls-3" d="M22.24,6.3a1,1,0,0,0-.75-1.07c-.23-.07-.51-.08-.61.15a.84.84,0,0,0,0,.66,1,1,0,0,0,.53.42.94.94,0,0,0,.87-.21Z"/><path class="cls-3" d="M19.09,7.33a.67.67,0,0,0,.65.75.66.66,0,0,0,.6-.56.59.59,0,0,0-.4-.7A.66.66,0,0,0,19.09,7.33Z"/><path class="cls-3" d="M53.18,26.42a.59.59,0,0,0-.66.49.68.68,0,0,0,.65.78.75.75,0,0,0,.58-.65A.63.63,0,0,0,53.18,26.42Z"/><path class="cls-3" d="M42.52,23.67a1.48,1.48,0,0,0,.33.45.64.64,0,0,0,.83-.1.37.37,0,0,0,.08-.21,1,1,0,0,0-.15-.43,1.78,1.78,0,0,0-.49-.46C43,22.85,42.6,23.3,42.52,23.67Z"/><path class="cls-3" d="M60.69,28.71a2.19,2.19,0,0,0,.42.48.4.4,0,0,0,.57-.2,1.34,1.34,0,0,0,.17-.62c0-.12-.13-.34-.23-.35a.83.83,0,0,0-.61.07C60.85,28.2,60.8,28.47,60.69,28.71Z"/><path class="cls-3" d="M58.21,27.93a1,1,0,0,0-.8.74.81.81,0,0,0,.74.75.77.77,0,0,0,.62-.86A.6.6,0,0,0,58.21,27.93Z"/><path class="cls-3" d="M4.49,22.36a.67.67,0,0,0,.71.74.68.68,0,0,0,.57-.64.88.88,0,0,0-.64-.64A.6.6,0,0,0,4.49,22.36Z"/><path class="cls-3" d="M11.58,28.41a.67.67,0,0,0-.52.88.59.59,0,0,0,.69.48.77.77,0,0,0,.55-.9A.65.65,0,0,0,11.58,28.41Z"/><path class="cls-3" d="M12.65,14.31a.55.55,0,0,0,.71.41.62.62,0,0,0,.43-.73c0-.25-.19-.44-.47-.43A.64.64,0,0,0,12.65,14.31Z"/><path class="cls-3" d="M24.23,12.31c0,.59.48.9.95.65a.57.57,0,0,0,.22-.8,2.9,2.9,0,0,0-.5-.49.41.41,0,0,0-.59.18C24.28,12,24.26,12.16,24.23,12.31Z"/><path class="cls-3" d="M38.55,12.23a.82.82,0,0,0-.6-.64.59.59,0,0,0-.55.6.73.73,0,0,0,.57.64A.67.67,0,0,0,38.55,12.23Z"/><path class="cls-3" d="M41.56,11.66a1.7,1.7,0,0,0-.44.08c-.28.12-.53.29-.53.65s.38.52.68.5a.76.76,0,0,0,.69-.76c0-.07,0-.18,0-.22A2.31,2.31,0,0,0,41.56,11.66Z"/><path class="cls-3" d="M22.44,20.49a.58.58,0,0,0,.48.64.63.63,0,0,0,.75-.35.61.61,0,0,0-.56-.8A.71.71,0,0,0,22.44,20.49Z"/><path class="cls-3" d="M30.42,13a1.7,1.7,0,0,0-1.09.43c-.15.19-.31.42-.14.64a.82.82,0,0,0,.55.35.78.78,0,0,0,.57-.31c.24-.36.1-.77.05-1.16Z"/><path class="cls-3" d="M37,13.9a.72.72,0,0,0-.68-.61,1,1,0,0,0-.55.31c-.17.22,0,.45.16.61a.51.51,0,0,0,.64.13A2.94,2.94,0,0,0,37,13.9Z"/><path class="cls-3" d="M11.47,13a.67.67,0,0,0,.49-1.2.72.72,0,0,0-.62.06,1.21,1.21,0,0,0-.36.56C10.87,12.73,11.12,13,11.47,13Z"/><path class="cls-3" d="M18.44,13.09c.12,0,.34-.23.41-.41a.68.68,0,0,0-.48-.91.55.55,0,0,0-.58.27c-.23.34-.29.69-.07.84A1.46,1.46,0,0,0,18.44,13.09Z"/><path class="cls-3" d="M11.81,18.36a.67.67,0,0,0-.74.44.68.68,0,0,0,.55.87.81.81,0,0,0,.81-.69C12.44,18.73,12.12,18.41,11.81,18.36Z"/><path class="cls-3" d="M27.06,9.69a5.25,5.25,0,0,0-.69.13c-.37.14-.55.4-.48.7a.87.87,0,0,0,.55.69.52.52,0,0,0,.7-.41c0-.39-.09-.78-.13-1.16Z"/><path class="cls-3" d="M14.1,10.18a7.16,7.16,0,0,0-.92,0,.48.48,0,0,0-.37.25.91.91,0,0,0-.06.66.71.71,0,0,0,.57.29A.77.77,0,0,0,13.9,11a2.86,2.86,0,0,0,.15-.89Z"/><path class="cls-3" d="M24.74,3a.67.67,0,0,0,.57-.82.58.58,0,0,0-.7-.4c-.35.08-.64.33-.65.56A.76.76,0,0,0,24.74,3Z"/><path class="cls-3" d="M50.56,17.85A8.13,8.13,0,0,0,50,16.62a.65.65,0,0,0-.62-.1.68.68,0,0,0-.21.58.71.71,0,0,0,.55.65,6.7,6.7,0,0,0,.9.05Z"/><path class="cls-3" d="M29.76,16.46a.86.86,0,0,0-.67.84c0,.27.35.58.64.53a.83.83,0,0,0,.69-.82A.67.67,0,0,0,29.76,16.46Z"/><path class="cls-3" d="M34.92,53.11A.73.73,0,1,0,35,51.65a.83.83,0,0,0-.67.58A.8.8,0,0,0,34.92,53.11Z"/><path class="cls-3" d="M12.82,40.85c.07.12.11.29.22.37a.67.67,0,0,0,1.06-.44.74.74,0,0,0-.2-.6.73.73,0,0,0-.62-.06A.69.69,0,0,0,12.82,40.85Z"/><path class="cls-3" d="M19.34,51.41a1.16,1.16,0,0,0,1.08-.18A1.42,1.42,0,0,0,20.78,50l0,.05a1.76,1.76,0,0,0-.69,0,2,2,0,0,0-.74.52c-.24.26-.1.59,0,.88Z"/><path class="cls-3" d="M41.72,45a.68.68,0,0,0-.73.42.82.82,0,0,0,.68,1,1,1,0,0,0,.66-.58A.76.76,0,0,0,41.72,45Z"/><path class="cls-3" d="M41.64,52.84a.55.55,0,0,0,.65-.49c0-.38-.2-.67-.49-.67a.68.68,0,0,0-.67.53A.55.55,0,0,0,41.64,52.84Z"/><path class="cls-3" d="M38.47,51.65c-.15,0-.36,0-.43.11a3.54,3.54,0,0,0-.46.8c-.08.17.21.49.43.47a1.36,1.36,0,0,0,.67-.17A.91.91,0,0,0,39,52.3.64.64,0,0,0,38.47,51.65Z"/><path class="cls-3" d="M41.63,55c-.25,0-.57.27-.62.57a.6.6,0,0,0,.42.7.71.71,0,0,0,.89-.5A.77.77,0,0,0,41.63,55Z"/><path class="cls-3" d="M24.18,43.28c-.37.11-.76.19-1.12.33a.5.5,0,0,0-.3.57c0,.27.42.62.67.56a1.23,1.23,0,0,0,.56-.37c.26-.34.15-.75.13-1.14Z"/><path class="cls-3" d="M20.05,44.66a.75.75,0,0,0,.63-.62.83.83,0,0,0-.64-.62.78.78,0,0,0-.62.63A.77.77,0,0,0,20.05,44.66Z"/><path class="cls-3" d="M36,53.94a.63.63,0,0,0,.57.69.7.7,0,0,0,.69-.53.68.68,0,0,0-.84-.57C36.25,53.59,36.12,53.83,36,53.94Z"/><path class="cls-3" d="M48.24,45a.62.62,0,0,0-.52.66.66.66,0,0,0,.59.6.68.68,0,0,0,.64-.55A.65.65,0,0,0,48.24,45Z"/><path class="cls-3" d="M30.66,15.5a.67.67,0,0,0,.63.8c.37,0,.81-.4.8-.71a1,1,0,0,0-.59-.69A.69.69,0,0,0,30.66,15.5Z"/><path class="cls-3" d="M51.64,42.91a.66.66,0,0,0,.65-.76.64.64,0,0,0-.63-.54.76.76,0,0,0-.81.64A.75.75,0,0,0,51.64,42.91Z"/><path class="cls-3" d="M47.57,42.31c.13.09.3.3.49.33.42.06.89-.36.77-.67a.79.79,0,0,0-.49-.44A.71.71,0,0,0,47.57,42.31Z"/><path class="cls-3" d="M11.18,42.38a.78.78,0,0,0,.75.76.87.87,0,0,0,.72-.81.65.65,0,0,0-.63-.59A.73.73,0,0,0,11.18,42.38Z"/><path class="cls-3" d="M6.38,43.28A7.94,7.94,0,0,0,5.84,42a.66.66,0,0,0-.62-.1.67.67,0,0,0-.26.56.75.75,0,0,0,.36.54,6.73,6.73,0,0,0,1.12.22Z"/><path class="cls-3" d="M40.55,54.06A.62.62,0,0,0,40,53.4a.64.64,0,0,0-.77.63.77.77,0,0,0,.65.58A.6.6,0,0,0,40.55,54.06Z"/><path class="cls-3" d="M22.67,47.42a.63.63,0,0,0,.52.63c.41,0,.83-.29.81-.61s-.37-.59-.82-.64C22.93,46.77,22.67,47.09,22.67,47.42Z"/><path class="cls-3" d="M20.78,48.09a3.15,3.15,0,0,0,.12-.67.75.75,0,0,0-.49-.7.78.78,0,0,0-.81.3,1.19,1.19,0,0,0-.21,1.08l-.05-.05a2.86,2.86,0,0,0,1.48,0Z"/><path class="cls-3" d="M21.66,39.62a.72.72,0,0,0,.57-.87.6.6,0,0,0-.71-.42.73.73,0,0,0-.58.85A.67.67,0,0,0,21.66,39.62Z"/><path class="cls-3" d="M9.73,47.45a.77.77,0,0,0,.61.64.69.69,0,0,0,.65-.57.74.74,0,0,0-.74-.74C10,46.77,9.7,47.13,9.73,47.45Z"/><path class="cls-3" d="M47.42,35.6c0,.07,0,.16,0,.22a.81.81,0,0,0,.83.25.75.75,0,0,0,.46-.92.38.38,0,0,0-.14-.19A.87.87,0,0,0,47.42,35.6Z"/><path class="cls-3" d="M55.51,17a.87.87,0,0,0,.6.63c.25,0,.57-.29.57-.6a.61.61,0,0,0-.57-.6C55.79,16.42,55.47,16.73,55.51,17Z"/><path class="cls-3" d="M49.75,47.91c.58,0,.84-.32.74-.74-.05-.24-.19-.43-.47-.41-.44,0-.74.34-.64.75C49.42,47.68,49.65,47.81,49.75,47.91Z"/><path class="cls-3" d="M50.08,37.76c.09-.12.3-.28.33-.47.06-.42-.27-.71-.71-.73a.62.62,0,0,0-.58.61A.81.81,0,0,0,50.08,37.76Z"/><path class="cls-3" d="M19.05,3.88a.81.81,0,0,0,.69.78.63.63,0,0,0,.62-.77.65.65,0,0,0-.65-.52C19.38,3.37,19.05,3.63,19.05,3.88Z"/><path class="cls-3" d="M20.05,38a.55.55,0,0,0,.5-.64.64.64,0,0,0-.74-.42.49.49,0,0,0-.38.5A.59.59,0,0,0,20.05,38Z"/><path class="cls-3" d="M16.18,37.41a.72.72,0,0,0,.61.59.65.65,0,0,0,.63-.55.6.6,0,0,0-.7-.68A.7.7,0,0,0,16.18,37.41Z"/><path class="cls-3" d="M17.48,39.94a4.63,4.63,0,0,0-.92.1c-.53.16-.6.7-.17,1.08.18.16.39.31.62.16a1.25,1.25,0,0,0,.43-.48c.06-.12,0-.3,0-.45l0-.47Z"/><path class="cls-3" d="M46.06,50.68a.61.61,0,0,0,.69.46.52.52,0,0,0,.47-.64.52.52,0,0,0-.66-.44A.53.53,0,0,0,46.06,50.68Z"/><path class="cls-3" d="M41.33,14.86a.72.72,0,0,0-.64.55.79.79,0,0,0,.65.81c.34.06.66-.36.61-.78A.67.67,0,0,0,41.33,14.86Z"/><path class="cls-3" d="M33.71,50.14a.65.65,0,0,0-.69.52c-.08.22-.14.45.1.63a.65.65,0,0,0,.85,0,.77.77,0,0,0,0-1.05A.54.54,0,0,0,33.71,50.14Z"/><path class="cls-3" d="M24.1,15.73a.64.64,0,0,0,.61.58.73.73,0,0,0,.69-.8.43.43,0,0,0-.46-.43A.83.83,0,0,0,24.1,15.73Z"/><path class="cls-3" d="M19.9,16.62a.56.56,0,0,0-.66.5.7.7,0,0,0,.54.67.53.53,0,0,0,.64-.5A.63.63,0,0,0,19.9,16.62Z"/><path class="cls-3" d="M22.87,17.84c.47-.06.74-.31.71-.72a.45.45,0,0,0-.23-.34.76.76,0,0,0-.93.46.49.49,0,0,0,.06.41C22.56,17.75,22.74,17.78,22.87,17.84Z"/><path class="cls-3" d="M8.52,15.16a.83.83,0,0,0-.81.66.66.66,0,0,0,.58.61.81.81,0,0,0,.8-.65A.73.73,0,0,0,8.52,15.16Z"/><path class="cls-3" d="M21.4,15a.58.58,0,0,0-.5.67.74.74,0,0,0,.67.56.7.7,0,0,0,.51-.72A.58.58,0,0,0,21.4,15Z"/><path class="cls-3" d="M44.53,14.91a.61.61,0,0,0-.52.65.59.59,0,0,0,.66.5.58.58,0,0,0,.52-.64A.62.62,0,0,0,44.53,14.91Z"/><path class="cls-3" d="M45.77,17.22a.53.53,0,0,0,.84.21.45.45,0,0,0,.19-.6.53.53,0,0,0-.8-.13C45.86,16.83,45.83,17.08,45.77,17.22Z"/><path class="cls-3" d="M39.61,16.71a.64.64,0,0,0-.47.7c0,.33.35.61.6.54a.83.83,0,0,0,.5-.73A.58.58,0,0,0,39.61,16.71Z"/><path class="cls-3" d="M32.58,4.06c.1.09.24.3.42.35a.52.52,0,0,0,.63-.49.68.68,0,0,0-.55-.63C32.83,3.29,32.57,3.63,32.58,4.06Z"/><path class="cls-3" d="M39.49,3.27A.57.57,0,0,0,39,3.9a.76.76,0,0,0,.28.55.61.61,0,0,0,.57-.15.72.72,0,0,0,0-.85C39.81,3.35,39.62,3.33,39.49,3.27Z"/><path class="cls-3" d="M22.84,4.55a.61.61,0,0,0,.66-.49A.64.64,0,0,0,23,3.42a.57.57,0,1,0-.13,1.13Z"/><path class="cls-3" d="M31.44,1.67c-.51.1-.82.53-.65.88a.77.77,0,0,0,.51.39c.37,0,.69-.46.54-.86C31.78,1.91,31.56,1.78,31.44,1.67Z"/><path class="cls-3" d="M27.34,2.18a.57.57,0,1,0,1.14,0A.55.55,0,0,0,28,1.69.57.57,0,0,0,27.34,2.18Z"/><path class="cls-3" d="M51.2,12.76c.41,0,.87-.61.71-1a.79.79,0,0,0-.83-.2.52.52,0,0,0-.39.5A.67.67,0,0,0,51.2,12.76Z"/><path class="cls-3" d="M9.63,10.7c-.07.42.17.75.47.75a.62.62,0,0,0,.63-.55.59.59,0,0,0-.63-.53C9.9,10.41,9.75,10.61,9.63,10.7Z"/><path class="cls-3" d="M15.52,10.14a3.29,3.29,0,0,0,.22.67.77.77,0,0,0,1,.31c.14,0,.36-.19.35-.26a1,1,0,0,0-.27-.61,1.67,1.67,0,0,0-1.37-.05Z"/><path class="cls-3" d="M53,13.19a.66.66,0,0,0-.49.67.6.6,0,0,0,.53.62.66.66,0,0,0,.6-.79A.59.59,0,0,0,53,13.19Z"/><path class="cls-3" d="M29.06,7.18a.74.74,0,0,0,.83.61c.23,0,.44-.15.45-.43a.71.71,0,0,0-.68-.76A.62.62,0,0,0,29.06,7.18Z"/><path class="cls-3" d="M35.78,7.47a.62.62,0,0,0,.81.26.52.52,0,0,0,.17-.8.49.49,0,0,0-.61-.22A.58.58,0,0,0,35.78,7.47Z"/><path class="cls-3" d="M17.25,7.31c0-.47-.36-.75-.76-.66A.6.6,0,0,0,16,7.3a.74.74,0,0,0,.65.56A.62.62,0,0,0,17.25,7.31Z"/><path class="cls-3" d="M37.15,9.69c-.43.11-.93.07-1.24.48a.56.56,0,0,0-.06.42.49.49,0,0,0,.3.28.69.69,0,0,0,.77-.34,6.83,6.83,0,0,0,.18-.9Z"/><path class="cls-3" d="M49,10.26a.51.51,0,0,0,.52.58.4.4,0,0,0,.47-.38.78.78,0,0,0-.28-.54C49.49,9.75,49.1,10,49,10.26Z"/><path class="cls-3" d="M52.9,9.73a.76.76,0,0,0-.62.59.68.68,0,0,0,.6.59.72.72,0,0,0,.61-.61A.61.61,0,0,0,52.9,9.73Z"/><path class="cls-3" d="M43.05,19.93a.78.78,0,0,0-.65.82.57.57,0,0,0,.71.43.68.68,0,0,0,.55-.65A.74.74,0,0,0,43.05,19.93Z"/><path class="cls-3" d="M4.54,19.24c0,.3.34.63.59.5a1.91,1.91,0,0,0,.66-.57.42.42,0,0,0-.18-.57c-.19-.12-.38-.23-.62-.07A.87.87,0,0,0,4.54,19.24Z"/><path class="cls-3" d="M49.84,19.88a.67.67,0,0,0-.75.78.47.47,0,0,0,.47.43c.49-.07.79-.39.67-.77C50.17,20.13,50,20,49.84,19.88Z"/><path class="cls-3" d="M6.83,41.34c.48,0,.75-.25.75-.56a.57.57,0,0,0-.64-.53.54.54,0,0,0-.48.68C6.51,41.11,6.73,41.24,6.83,41.34Z"/><path class="cls-3" d="M10.17,41.34a.61.61,0,0,0,.62-.56.62.62,0,0,0-.4-.76.58.58,0,0,0-.73.41A.72.72,0,0,0,10.17,41.34Z"/><path class="cls-3" d="M15,21.82c-.43.11-.69.52-.53.82s.56.48.74.32a.93.93,0,0,0,.29-.55C15.57,22.06,15.27,21.76,15,21.82Z"/><path class="cls-3" d="M22.6,40.76a.59.59,0,0,0,.53.62c.39,0,.65-.15.7-.43a.65.65,0,0,0-.62-.78A.71.71,0,0,0,22.6,40.76Z"/><path class="cls-3" d="M58.17,21.4a.57.57,0,0,0-.59.56.6.6,0,0,0,.6.57.5.5,0,0,0,.46-.45A.57.57,0,0,0,58.17,21.4Z"/><path class="cls-3" d="M45.17,45a.69.69,0,0,0-.82.67.48.48,0,0,0,.37.49.67.67,0,0,0,.83-.76C45.49,45.23,45.27,45.11,45.17,45Z"/><path class="cls-3" d="M6.44,43.23c0,.38-.2.78.06,1.12a.77.77,0,0,0,.55.29c.19,0,.37-.23.51-.4s0-.44-.11-.62c-.28-.35-.71-.25-1.07-.34Z"/><path class="cls-3" d="M12.79,44.05a.89.89,0,0,0,.82.64.58.58,0,0,0,.49-.63.74.74,0,0,0-.77-.66A.77.77,0,0,0,12.79,44.05Z"/><path class="cls-3" d="M26.54,43.42a.58.58,0,0,0-.47.68.6.6,0,0,0,.65.52A.56.56,0,0,0,27.2,44,.61.61,0,0,0,26.54,43.42Z"/><path class="cls-3" d="M33.3,44.58a.75.75,0,0,0,.56-1,.27.27,0,0,0-.18-.13.7.7,0,0,0-.8.33.9.9,0,0,0,0,.64C33,44.48,33.16,44.52,33.3,44.58Z"/><path class="cls-3" d="M48,21.49a.58.58,0,0,0-.68.47.56.56,0,0,0,.54.61.64.64,0,0,0,.68-.48A.54.54,0,0,0,48,21.49Z"/><path class="cls-3" d="M36.11,43.93a.67.67,0,0,0,.53.65.53.53,0,0,0,.64-.48.67.67,0,0,0-.52-.66A.55.55,0,0,0,36.11,43.93Z"/><path class="cls-3" d="M46,43.87a.56.56,0,0,0,.5.64.67.67,0,0,0,.65-.53.54.54,0,0,0-.49-.62A.63.63,0,0,0,46,43.87Z"/><path class="cls-3" d="M27.65,42.4a.64.64,0,0,0,.53.65.73.73,0,0,0,.76-.68.5.5,0,0,0-.41-.48A.69.69,0,0,0,27.65,42.4Z"/><path class="cls-3" d="M44.29,29c.05.26.17.44.45.45a.6.6,0,0,0,.65-.75.49.49,0,0,0-.46-.45C44.51,28.16,44.25,28.48,44.29,29Z"/><path class="cls-3" d="M59.79,29.67a.61.61,0,0,0-.62.56.65.65,0,0,0,.62.58.68.68,0,0,0,.63-.58A.64.64,0,0,0,59.79,29.67Z"/><path class="cls-3" d="M10.27,31.29c.1-.1.32-.23.36-.4a.63.63,0,0,0-.62-.77.57.57,0,0,0-.49.65C9.55,31.08,9.8,31.27,10.27,31.29Z"/><path class="cls-3" d="M10.38,33.29a.85.85,0,0,0-.71.64.7.7,0,0,0,.61.6.63.63,0,0,0,.52-.86C10.72,33.5,10.49,33.39,10.38,33.29Z"/><path class="cls-3" d="M56.68,39.9a.61.61,0,0,0-.64.53.59.59,0,0,0,.47.68.7.7,0,0,0,.64-.55A.53.53,0,0,0,56.68,39.9Z"/><path class="cls-3" d="M19.41,24a.65.65,0,0,0,.66.53.5.5,0,0,0,.49-.63.66.66,0,0,0-.64-.55A.58.58,0,0,0,19.41,24Z"/><path class="cls-3" d="M47.53,38.69a.75.75,0,0,0,.86.82.49.49,0,0,0,.4-.67,1,1,0,0,0-.64-.6A.45.45,0,0,0,47.53,38.69Z"/><path class="cls-3" d="M54.21,38.82c.08.15.14.43.31.53a.74.74,0,0,0,.65,0,1,1,0,0,0,.25-.62.58.58,0,0,0-.57-.62A.84.84,0,0,0,54.21,38.82Z"/><path class="cls-3" d="M60,37.77a.73.73,0,0,0,.59-.6.67.67,0,0,0-.78-.6.57.57,0,0,0-.44.67A.69.69,0,0,0,60,37.77Z"/><path class="cls-3" d="M4.88,35.2a.52.52,0,0,0-.21,0,.75.75,0,0,0-.2.83.57.57,0,0,0,.72.38.55.55,0,0,0,.38-.72A.69.69,0,0,0,4.88,35.2Z"/><path class="cls-3" d="M15.11,35.18c-.13.07-.39.14-.49.31a.67.67,0,0,0,.44.92.57.57,0,0,0,.65-.51A.75.75,0,0,0,15.11,35.18Z"/><path class="cls-3" d="M54.05,25.36a.74.74,0,0,0,.69.53.64.64,0,0,0,.54-.65.63.63,0,0,0-.67-.51A.68.68,0,0,0,54.05,25.36Z"/><path class="cls-3" d="M11.89,25a.62.62,0,0,0-.57.57.75.75,0,0,0,.45.71c.3.11.71-.28.71-.67A.76.76,0,0,0,11.89,25Z"/><path class="cls-3" d="M36.69,58a.67.67,0,0,0,.71-.7.72.72,0,0,0-.65-.55.68.68,0,0,0-.59.6A.66.66,0,0,0,36.69,58Z"/><path class="cls-3" d="M44.82,56.25c.15,0,.34,0,.43-.12a.79.79,0,0,0,.26-.54.68.68,0,0,0-.39-.47.77.77,0,0,0-.59.16.54.54,0,0,0-.09.79C44.53,56.17,44.69,56.19,44.82,56.25Z"/><path class="cls-3" d="M26.22,47.66A.59.59,0,0,0,27,48a.65.65,0,0,0,.34-.93.59.59,0,0,0-.78-.21A.65.65,0,0,0,26.22,47.66Z"/><path class="cls-3" d="M32.84,47.48a.57.57,0,0,0,.63.5.72.72,0,0,0,.52-.65.66.66,0,0,0-.66-.5A.6.6,0,0,0,32.84,47.48Z"/><path class="cls-3" d="M39.41,47.62a.51.51,0,0,0,.72.3.58.58,0,0,0,.28-.76.76.76,0,0,0-.49-.36C39.56,46.77,39.28,47.27,39.41,47.62Z"/><path class="cls-3" d="M47.16,47.33a.85.85,0,0,0-.63-.6.78.78,0,0,0-.6.62.81.81,0,0,0,.63.59C46.82,47.94,47.19,47.57,47.16,47.33Z"/><path class="cls-3" d="M29.07,45.77a.59.59,0,0,0-.53-.64c-.39,0-.68.11-.75.39a.73.73,0,0,0,.67.81A.57.57,0,0,0,29.07,45.77Z"/><path class="cls-3" d="M38.1,46.39a.57.57,0,1,0-.49-.63A.57.57,0,0,0,38.1,46.39Z"/><path class="cls-3" d="M33.36,53.4a.59.59,0,0,0-.55.59.77.77,0,0,0,.62.58.68.68,0,0,0,.66-.51C34.12,53.67,33.81,53.4,33.36,53.4Z"/><path class="cls-3" d="M44.39,52.18a.55.55,0,0,0,.51.65.65.65,0,0,0,.71-.49.6.6,0,0,0-.53-.65A.66.66,0,0,0,44.39,52.18Z"/><path class="cls-3" d="M36.11,50.69a.71.71,0,0,0,.6.59.75.75,0,0,0,.63-.58.85.85,0,0,0-.63-.61A.66.66,0,0,0,36.11,50.69Z"/><path class="cls-3" d="M31.67,48.49a2.22,2.22,0,0,0-.51.43c-.06.08,0,.3.11.42a.68.68,0,0,0,.82.24.4.4,0,0,0,.18-.7A4.15,4.15,0,0,0,31.67,48.49Z"/><path class="cls-3" d="M38.94,49.2a.71.71,0,0,0-.86-.62.44.44,0,0,0-.34.51c.08.42.52.71.82.53A1.83,1.83,0,0,0,38.94,49.2Z"/><path class="cls-3" d="M48.4,49.44a.74.74,0,0,0,.62-.57c0-.23-.35-.54-.63-.54a.66.66,0,0,0-.61.56A.7.7,0,0,0,48.4,49.44Z"/><path class="cls-3" d="M47.49,18.69a.5.5,0,0,0,.56.57.79.79,0,0,0,.51-.36.53.53,0,0,0-.4-.71A.58.58,0,0,0,47.49,18.69Z"/><path class="cls-3" d="M42.87,47.49a1.46,1.46,0,0,0,.38.41.48.48,0,0,0,.67-.39.69.69,0,0,0-.19-.57C43.49,46.74,43,47.07,42.87,47.49Z"/><path class="cls-3" d="M29.9,43.55c-.1.11-.32.24-.38.43s.2.63.5.67a.69.69,0,0,0,.63-.57C30.66,43.82,30.31,43.53,29.9,43.55Z"/><path class="cls-3" d="M39.4,43.82a.65.65,0,0,0,.49.66c.11,0,.36-.07.37-.14a1,1,0,0,0-.07-.6.45.45,0,0,0-.56-.26C39.52,43.53,39.47,43.7,39.4,43.82Z"/><path class="cls-3" d="M49.32,43.78a3.16,3.16,0,0,0,.36.56c.15.14.51-.06.51-.3a1.15,1.15,0,0,0-.21-.62c0-.07-.32-.07-.43,0S49.39,43.65,49.32,43.78Z"/><path class="cls-3" d="M37.59,42.1c.11.19.18.45.35.56a.92.92,0,0,0,.64.09c.09,0,.2-.23.2-.36a.62.62,0,0,0-1-.48A1.13,1.13,0,0,0,37.59,42.1Z"/><path class="cls-3" d="M44.84,42.85c.11-.09.35-.18.43-.34a.68.68,0,0,0-.3-.81.53.53,0,0,0-.68.43A.62.62,0,0,0,44.84,42.85Z"/><path class="cls-3" d="M46,53.87a.66.66,0,0,0,.52.75c.3,0,.69-.3.64-.55a.77.77,0,0,0-.68-.55C46.29,53.56,46.13,53.77,46,53.87Z"/><path class="cls-3" d="M47.8,52.21a1.57,1.57,0,0,0,.3.44c.08.06.29,0,.43,0a1.23,1.23,0,0,0-.06-.39.89.89,0,0,0-.33-.31C48,51.82,47.85,51.91,47.8,52.21Z"/><path class="cls-3" d="M39.5,50.83c.12.08.27.27.46.31s.57-.23.53-.58a.46.46,0,0,0-.47-.42C39.7,50.1,39.45,50.38,39.5,50.83Z"/><path class="cls-3" d="M49.38,50.39c-.05.41.19.81.44.77a1,1,0,0,0,.53-.35c.16-.22,0-.44-.17-.6s-.29-.22-.37-.19A2,2,0,0,0,49.38,50.39Z"/><path class="cls-3" d="M27.52,50c.36-.12.73-.23,1.07-.37s.34-.44.18-.56a1,1,0,0,0-.58-.26c-.34,0-.62.38-.67.79a1.74,1.74,0,0,0,.06.45Z"/><path class="cls-3" d="M34.37,49.34c.1.13.18.3.3.35a.73.73,0,0,0,1-.63.46.46,0,0,0-.36-.5,1,1,0,0,0-1,.57A.74.74,0,0,0,34.37,49.34Z"/><path class="cls-3" d="M45,48.61a.55.55,0,0,0-.59.53.63.63,0,0,0,.63.52.49.49,0,0,0,.47-.41A.64.64,0,0,0,45,48.61Z"/><path class="cls-3" d="M13.57,33.59c-.24,0-.45,0-.54.1a1.29,1.29,0,0,0-.28.59c0,.1.17.26.29.32a1.05,1.05,0,0,0,.47,0c.32,0,.63-.41.5-.66S13.69,33.7,13.57,33.59Z"/><path class="cls-3" d="M3,34.24c.1.11.23.34.4.39a.67.67,0,0,0,.8-.65.5.5,0,0,0-.41-.51C3.35,33.4,3,33.66,3,34.24Z"/><path class="cls-3" d="M45.86,33.89a.73.73,0,0,0,.71.58.66.66,0,0,0,.53-.65.67.67,0,0,0-.92-.41A1.44,1.44,0,0,0,45.86,33.89Z"/><path class="cls-3" d="M17.9,32.48a2.9,2.9,0,0,0,.38.44c.16.12.45-.05.53-.28a.6.6,0,0,0-.32-.75C18.24,31.79,17.88,32.11,17.9,32.48Z"/><path class="cls-3" d="M61.22,32.64c.3,0,.48-.32.43-.7a.51.51,0,0,0-.43-.47c-.26-.07-.61.28-.61.58A.64.64,0,0,0,61.22,32.64Z"/><path class="cls-3" d="M16.22,31a1.74,1.74,0,0,0,.56.23c.29,0,.63-.46.49-.67a.81.81,0,0,0-.56-.31C16.42,30.25,16.13,30.7,16.22,31Z"/><path class="cls-3" d="M13.34,29.92c-.11.16-.32.32-.35.51a1.37,1.37,0,0,0,.18.62s.15.07.22.06c.27,0,.63-.36.58-.61s-.22-.36-.36-.53S13.47,29.94,13.34,29.92Z"/><path class="cls-3" d="M39.83,40c-.14.15-.36.3-.4.48s.12.4.22.59.15.07.22.06a.62.62,0,0,0,.41-.9C40.21,40.07,40,40,39.83,40Z"/><path class="cls-3" d="M50.46,40.53a1.34,1.34,0,0,0-.33-.44c-.23-.15-.64.15-.59.46a.91.91,0,0,0,.3.55C50,41.24,50.43,40.9,50.46,40.53Z"/><path class="cls-3" d="M44.88,39.43a.52.52,0,0,0,.45-.67c-.06-.28-.5-.6-.69-.45a1,1,0,0,0-.34.56A.52.52,0,0,0,44.88,39.43Z"/><path class="cls-3" d="M3.76,37.81c.11-.1.33-.22.4-.39s-.15-.74-.42-.69a.83.83,0,0,0-.5.38C3.09,37.38,3.35,37.74,3.76,37.81Z"/><path class="cls-3" d="M42.75,37c0,.43.3.73.55.61a.85.85,0,0,0,.41-.47c.08-.28-.3-.61-.56-.52S42.85,36.93,42.75,37Z"/><path class="cls-3" d="M55.83,37.08c.09.11.18.34.35.44a.65.65,0,0,0,.81-.3.54.54,0,0,0-.43-.7A.64.64,0,0,0,55.83,37.08Z"/><path class="cls-3" d="M17.92,35.85c.06.23.45.36.75.24s.4-.21.39-.48-.29-.44-.67-.4A.61.61,0,0,0,17.92,35.85Z"/><path class="cls-3" d="M38.45,56.14c.13-.06.31-.09.39-.2a.43.43,0,0,0,0-.6.59.59,0,0,0-.39-.21.9.9,0,0,0-.56.27c-.17.21,0,.44.19.58A1.25,1.25,0,0,0,38.45,56.14Z"/><path class="cls-3" d="M42.94,10.77c.41.05.8-.24.69-.47a.84.84,0,0,0-.47-.42c-.3-.1-.69.21-.6.47S42.84,10.67,42.94,10.77Z"/><path class="cls-3" d="M11.84,8.75a.6.6,0,0,0-.61.56.56.56,0,0,0,.63.52.47.47,0,0,0,.47-.42A.58.58,0,0,0,11.84,8.75Z"/><path class="cls-3" d="M47.86,8.39c-.21.15-.43.22-.51.38s0,.42.24.52.7-.1.66-.36S48,8.6,47.86,8.39Z"/><path class="cls-3" d="M47.39,12.2c.14,0,.36.16.5.1a.89.89,0,0,0,.39-.46c.07-.18-.24-.43-.45-.39A.61.61,0,0,0,47.39,12.2Z"/><path class="cls-3" d="M32.3,11.1c.4,0,.81.08,1.12-.26a.55.55,0,0,0,.11-.65.6.6,0,0,0-.83-.12,1.06,1.06,0,0,0-.35,1.08Z"/><path class="cls-3" d="M29,4a1.52,1.52,0,0,0,.36.41.63.63,0,0,0,.8-.28.54.54,0,0,0-.44-.68C29.38,3.39,29.15,3.54,29,4Z"/><path class="cls-3" d="M13.33,7.23c-.43.09-.64.42-.49.72a.75.75,0,0,0,.51.36c.22,0,.49-.44.39-.73S13.44,7.32,13.33,7.23Z"/><path class="cls-3" d="M26.17,7.83c.42,0,.87-.51.72-.76a.88.88,0,0,0-.55-.34c-.37-.06-.76.41-.61.72S26,7.73,26.17,7.83Z"/><path class="cls-3" d="M39.09,7.11a.65.65,0,0,0,.56.59.54.54,0,0,0,.51-.6.51.51,0,0,0-.43-.46A.54.54,0,0,0,39.09,7.11Z"/><path class="cls-3" d="M42.25,7.11a.57.57,0,0,0,.47.66.6.6,0,0,0,.64-.5.57.57,0,0,0-.48-.64A.53.53,0,0,0,42.25,7.11Z"/><path class="cls-3" d="M49,7.25a.49.49,0,0,0,.75.23.53.53,0,0,0,.2-.78.5.5,0,0,0-.6-.19A.6.6,0,0,0,49,7.25Z"/><path class="cls-3" d="M41.71,5.48A.61.61,0,0,0,40.83,5a.45.45,0,0,0-.19.36c0,.45.44.74.74.55A1.31,1.31,0,0,0,41.71,5.48Z"/><path class="cls-3" d="M44,5.91c.16,0,.39.17.56.13s.32-.28.48-.43c-.16-.15-.29-.37-.48-.45a.54.54,0,0,0-.65.46A1.22,1.22,0,0,0,44,5.91Z"/><path class="cls-3" d="M18,22.38c0,.34.25.56.46.49a.48.48,0,0,0,.36-.49c0-.25-.25-.49-.45-.38A1.46,1.46,0,0,0,18,22.38Z"/><path class="cls-3" d="M55.91,29.27a4.59,4.59,0,0,0-.1.9,1.42,1.42,0,0,0,.28.58c.13.18.51.21.6.05a1,1,0,0,0,.15-.61c-.1-.51-.68-.55-1-.87Z"/><path class="cls-3" d="M59.18,27.05c.09.11.18.34.35.42a.5.5,0,0,0,.66-.43c0-.38-.13-.62-.44-.66S59.21,26.6,59.18,27.05Z"/><path class="cls-3" d="M13.06,23.34c-.09.12-.32.28-.34.46s.35.56.64.58.44-.28.44-.5S13.5,23.32,13.06,23.34Z"/><path class="cls-3" d="M53.33,22.93c-.26.12-.52.16-.63.31a.72.72,0,0,0,0,.61.41.41,0,0,0,.6.11.9.9,0,0,0,.42-.49C53.7,23.32,53.47,23.13,53.33,22.93Z"/><path class="cls-3" d="M7.89,22.41c.07.35.36.61.64.48A.88.88,0,0,0,9,22.43c.06-.27-.6-.58-.92-.42C8,22.06,8,22.27,7.89,22.41Z"/><path class="cls-3" d="M11.16,22.23c0,.42.3.75.56.62a.87.87,0,0,0,.42-.45c.08-.27-.32-.63-.57-.53S11.26,22.13,11.16,22.23Z"/><path class="cls-3" d="M27.45,15.45a.66.66,0,0,0,.55.65.75.75,0,0,0,.58-.23.71.71,0,0,0,0-.62,1,1,0,0,0-.57-.33A.48.48,0,0,0,27.45,15.45Z"/><path class="cls-3" d="M26.49,13.56c-.36,0-.69.21-.58.51s.31.41.45.4.36-.24.48-.42S26.75,13.59,26.49,13.56Z"/><path class="cls-3" d="M16,13.5a2.12,2.12,0,0,0,0,.67.56.56,0,0,0,.75.3c.28-.14.48-.51.33-.76a.78.78,0,0,0-.5-.35,1.59,1.59,0,0,0-.64.2Z"/><path class="cls-3" d="M39,14c.1.12.2.37.36.41A.91.91,0,0,0,40,14.2c.19-.11.37-.33.2-.55a.87.87,0,0,0-.54-.32C39.34,13.29,39.05,13.6,39,14Z"/><path class="cls-3" d="M42.38,14c.1.12.21.35.38.42a.58.58,0,0,0,.75-.62.48.48,0,0,0-.47-.43A.66.66,0,0,0,42.38,14Z"/><path class="cls-3" d="M50.06,13.78a.57.57,0,0,0-.69-.43.78.78,0,0,0-.46.43c-.09.26.27.58.56.58A.63.63,0,0,0,50.06,13.78Z"/><path class="cls-3" d="M44.45,12.8l.42-.43c-.11-.09-.23-.19-.35-.27a.34.34,0,0,0-.2-.08c-.13,0-.31.07-.36.15a.48.48,0,0,0,0,.42C44.08,12.69,44.26,12.71,44.45,12.8Z"/><path class="cls-3" d="M18.14,19.47c.43,0,.69-.26.71-.56a.58.58,0,0,0-.58-.56.57.57,0,0,0-.45.67C17.85,19.2,18.05,19.35,18.14,19.47Z"/><path class="cls-3" d="M52.84,17.38c.54,0,.78-.21.74-.54a.44.44,0,0,0-.46-.43c-.37,0-.67.2-.6.53C52.55,17.12,52.75,17.27,52.84,17.38Z"/><path class="cls-3" d="M17.7,15.66a.59.59,0,0,0,.61.53c.23,0,.45-.26.38-.46a.59.59,0,0,0-.72-.4C17.85,15.38,17.79,15.54,17.7,15.66Z"/><path class="cls-3" d="M13.19,17.74c.14,0,.22,0,.27,0a.46.46,0,0,0,.17-.6.39.39,0,0,0-.51-.29c-.23.08-.4.26-.32.49S13.07,17.61,13.19,17.74Z"/><path class="cls-3" d="M32.51,17.2a.52.52,0,0,0,.64.44.41.41,0,0,0,.31-.5.56.56,0,0,0-.74-.27C32.62,16.92,32.58,17.09,32.51,17.2Z"/><path class="cls-3" d="M47.06,13.85a3.52,3.52,0,0,0-.58-.47c-.18-.08-.53.27-.44.44s.29.44.46.47S46.84,14,47.06,13.85Z"/><path class="cls-3" d="M20,13.6c-.48,0-.7.1-.79.45s.11.41.39.44.68-.11.66-.43S20,13.71,20,13.6Z"/><path class="cls-3" d="M50.91,15.45c.2-.07.4-.13.59-.21s.06-.13,0-.19-.08-.14-.14-.15c-.26-.07-.4.13-.54.3S50.88,15.33,50.91,15.45Z"/><path class="cls-3" d="M34.92,15c-.4,0-.71.29-.65.58a.46.46,0,0,0,.48.37c.38,0,.68-.27.55-.53A1.74,1.74,0,0,0,34.92,15Z"/><path class="cls-3" d="M18.35,25.28c-.36,0-.61.37-.48.5a1.08,1.08,0,0,0,.57.29c.27.05.49-.27.35-.46A1.74,1.74,0,0,0,18.35,25.28Z"/><path class="cls-3" d="M8.47,25.59c-.37-.07-.58.16-.51.41a.53.53,0,0,0,.49.41c.27,0,.5-.2.38-.42A2.11,2.11,0,0,0,8.47,25.59Z"/><path class="cls-3" d="M56.13,27.44c.46,0,.63-.13.75-.5s-.21-.55-.55-.54a.51.51,0,0,0-.5.6C55.87,27.18,56.05,27.33,56.13,27.44Z"/><path class="cls-3" d="M45.78,26.88c0,.45.25.6.63.56s.42-.2.38-.43a.5.5,0,0,0-.63-.46C46,26.6,45.87,26.8,45.78,26.88Z"/><path class="cls-3" d="M60.17,23.39c-.1-.08-.24-.27-.41-.31a.51.51,0,0,0-.67.39.59.59,0,0,0,.53.61A.62.62,0,0,0,60.17,23.39Z"/><path class="cls-3" d="M56.48,23.27a2.64,2.64,0,0,0-.46.56c-.07.16.25.41.49.41s.54-.26.45-.43A3.1,3.1,0,0,0,56.48,23.27Z"/><path class="cls-3" d="M16.29,24.33c.16,0,.4.18.53.11s.22-.35.26-.54-.2-.23-.32-.24A.52.52,0,0,0,16.29,24.33Z"/><path class="cls-3" d="M6.25,24c.14.44.4.58.72.46a.46.46,0,1,0-.35-.85C6.45,23.66,6.35,23.87,6.25,24Z"/><path class="cls-3" d="M59.26,20.38a1.87,1.87,0,0,0,.35.44.38.38,0,0,0,.53-.28.52.52,0,0,0-.32-.55C59.61,19.88,59.33,20,59.26,20.38Z"/><path class="cls-3" d="M56.32,19.76a2.75,2.75,0,0,0-.39.57c-.07.25.15.51.33.43a.81.81,0,0,0,.41-.43C56.7,20.2,56.49,20,56.32,19.76Z"/><path class="cls-3" d="M52.57,20.7a2.17,2.17,0,0,0,.67.28.38.38,0,0,0,.26-.52c-.07-.11-.27-.23-.37-.2S52.83,20.49,52.57,20.7Z"/><path class="cls-3" d="M6.21,20.86c0,.26.31.43.68.4a.42.42,0,0,0,.42-.43.58.58,0,0,0-.55-.59A.65.65,0,0,0,6.21,20.86Z"/><path class="cls-3" d="M51.25,22.62a2.23,2.23,0,0,0,.3-.61.34.34,0,0,0-.39-.4c-.23.07-.42.23-.36.46S51.05,22.38,51.25,22.62Z"/><path class="cls-3" d="M26.45,16.81c-.12.08-.36.16-.47.33s.2.69.48.67A.76.76,0,0,0,27,17.5C27.17,17.27,26.85,16.87,26.45,16.81Z"/><path class="cls-3" d="M16.74,17a2.69,2.69,0,0,0-.55.31c-.05,0,0,.31.09.37a.49.49,0,0,0,.75-.19A.34.34,0,0,0,16.74,17Z"/><path class="cls-3" d="M9.59,17.37c.08.19.1.37.19.44.28.17.74.05.81-.18s-.28-.72-.51-.66S9.75,17.24,9.59,17.37Z"/><path class="cls-3" d="M6.81,16.86c-.24.21-.45.32-.52.48s.18.47.41.43.37-.16.36-.23A2.64,2.64,0,0,0,6.81,16.86Z"/><path class="cls-3" d="M54.43,18.41c0,.14,0,.32.11.42a.55.55,0,0,0,.39.18.36.36,0,0,0,.26-.51,1.67,1.67,0,0,0-.31-.34c-.05,0-.18-.1-.2-.07A2,2,0,0,0,54.43,18.41Z"/><path class="cls-3" d="M22,22.36l-.48-.5c-.13.16-.36.33-.36.49s.24.32.37.48Z"/><path class="cls-3" d="M35.79,4.13c.13.08.3.25.49.26s.61-.37.49-.62a.72.72,0,0,0-.49-.34C36,3.4,35.71,3.77,35.79,4.13Z"/><path class="cls-3" d="M25.89,3.71c0,.43.28.66.6.64a.43.43,0,0,0,.42-.43.45.45,0,0,0-.57-.5C26.17,3.44,26,3.62,25.89,3.71Z"/><path class="cls-3" d="M37.52,5.68a2.62,2.62,0,0,0,.44.44s.31-.11.32-.2a.38.38,0,0,0-.36-.46C37.81,5.44,37.69,5.58,37.52,5.68Z"/><path class="cls-3" d="M34.21,2.26a2.73,2.73,0,0,0,.33.53c.13.13.5,0,.56-.25s0-.36,0-.43a1.2,1.2,0,0,0-.58-.27S34.33,2.08,34.21,2.26Z"/><path class="cls-3" d="M37.4,2.37c.1.07.18.15.2.14a2.46,2.46,0,0,0,.51-.39c.06-.07,0-.24,0-.37-.13,0-.3,0-.38.1A2.51,2.51,0,0,0,37.4,2.37Z"/><path class="cls-3" d="M19.4,10.43a.66.66,0,0,0,.46.78c.24.08.53-.21.54-.55a.47.47,0,0,0-.57-.5A1.68,1.68,0,0,0,19.4,10.43Z"/><path class="cls-3" d="M22.46,10.73c0,.27.26.62.55.58a.74.74,0,0,0,.49-.37c.11-.24-.15-.61-.42-.71S22.49,10.42,22.46,10.73Z"/><path class="cls-3" d="M46.05,10a2.18,2.18,0,0,0-.28.63c0,.32.34.5.66.36a.39.39,0,0,0,.19-.57A2.63,2.63,0,0,0,46.05,10Z"/><path class="cls-3" d="M44.32,8.4,44,9a2.7,2.7,0,0,0,.56.24c.06,0,.25-.27.22-.33A3.13,3.13,0,0,0,44.32,8.4Z"/><path class="cls-3" d="M42.81,50.7a1.48,1.48,0,0,0,.33.48c.18.12.69-.24.66-.47a.82.82,0,0,0-.32-.54C43.26,50,42.86,50.34,42.81,50.7Z"/><path class="cls-3" d="M42.9,53.84a3.1,3.1,0,0,0,.66.35c.1,0,.28-.11.35-.22s-.16-.52-.37-.49A2.43,2.43,0,0,0,42.9,53.84Z"/><path class="cls-3" d="M16.68,26.73c-.21.18-.43.28-.51.44s.2.65.48.55a.63.63,0,0,0,.38-.43C17,27.13,16.83,27,16.68,26.73Z"/><path class="cls-3" d="M16.3,34c.08.47.36.67.68.58a.49.49,0,0,0,.4-.5.47.47,0,0,0-.66-.43C16.54,33.69,16.41,33.89,16.3,34Z"/><path class="cls-3" d="M44.3,35.67a.52.52,0,0,0,.65.47c.31,0,.59-.43.44-.67a1,1,0,0,0-.53-.38C44.57,35,44.27,35.37,44.3,35.67Z"/><path class="cls-3" d="M55.77,33.74c.26.17.44.35.63.37s.55-.41.43-.67a.42.42,0,0,0-.59-.2C56.07,33.32,56,33.53,55.77,33.74Z"/><path class="cls-3" d="M36.16,47.38c.07.13.1.32.2.38.3.15.71-.17.77-.58a.41.41,0,0,0-.44-.41C36.36,46.78,36.2,47,36.16,47.38Z"/><path class="cls-3" d="M51.58,48.4c-.18.19-.39.31-.43.48s.12.41.38.46.66-.26.54-.51S51.78,48.57,51.58,48.4Z"/><path class="cls-3" d="M41.77,48.46c-.41,0-.67.12-.76.45a.58.58,0,0,0,.08.41.45.45,0,0,0,.37.14,1.54,1.54,0,0,0,.57-.29c.11-.08.22-.32.17-.38A2,2,0,0,0,41.77,48.46Z"/><path class="cls-3" d="M42.66,44.06c.11.12.23.33.42.41s.63-.3.54-.55a1,1,0,0,0-.42-.51C43,43.29,42.66,43.67,42.66,44.06Z"/><path class="cls-3" d="M39.93,56.7c-.09.09-.3.21-.34.38s.13.41.34.52a.47.47,0,0,0,.57-.24C40.59,57.09,40.36,56.77,39.93,56.7Z"/><path class="cls-3" d="M43.44,56.61c-.21.22-.41.35-.48.52s.23.61.54.51.43-.23.35-.49S43.62,56.84,43.44,56.61Z"/><path class="cls-3" d="M51.86,52c-.09-.17-.14-.37-.23-.39a.37.37,0,0,0-.48.33c0,.11.11.24.17.37Z"/><path class="cls-3" d="M39.69,10.72c.25,0,.46-.19.4-.39a.4.4,0,0,0-.48-.31.53.53,0,0,0-.3.27C39.22,10.48,39.44,10.71,39.69,10.72Z"/><path class="cls-3" d="M19.48,20.76c-.07.22.08.39.36.43s.41-.12.46-.35a.37.37,0,0,0-.35-.46C19.67,20.35,19.56,20.53,19.48,20.76Z"/><path class="cls-3" d="M39.54,20.07a4,4,0,0,0,.41.41s.26-.15.25-.23a.42.42,0,0,0-.21-.32C39.89,19.9,39.75,20,39.54,20.07Z"/><path class="cls-3" d="M54.09,15.44c0,.19.08.32.24.27s.17-.2.23-.32-.11-.17-.13-.17Z"/><path class="cls-3" d="M23.24,14.47a1.89,1.89,0,0,0,.37-.41c.11-.21-.09-.45-.34-.47s-.42.15-.5.39S22.86,14.43,23.24,14.47Z"/><path class="cls-3" d="M46.22,7.67c.37-.07.54-.28.47-.52a.42.42,0,0,0-.5-.36c-.27,0-.46.25-.35.47A1.9,1.9,0,0,0,46.22,7.67Z"/><path class="cls-3" d="M19.58,34.31l.55.27c.05-.13.16-.27.15-.4,0-.29-.29-.46-.46-.32S19.68,34.11,19.58,34.31Z"/><path class="cls-3" d="M48.14,31.79c-.09.1-.29.22-.35.39s.1.41.34.47.41-.09.46-.37S48.49,31.84,48.14,31.79Z"/><path class="cls-3" d="M3,30.72c.11.33.21.54.52.48s.43-.25.36-.49-.22-.46-.49-.37S3.13,30.61,3,30.72Z"/><path class="cls-3" d="M6.45,30.56a4.25,4.25,0,0,0,.5.52c.14.1.29,0,.35-.18s.07-.51-.16-.58S6.75,30.45,6.45,30.56Z"/><path class="cls-3" d="M3.52,27c-.26,0-.45.29-.3.45a1,1,0,0,0,.52.28,1,1,0,0,0,.19-.36C4,27.11,3.79,27,3.52,27Z"/><path class="cls-3" d="M53.08,47.23l.57.21c0-.14.14-.31.09-.41a.47.47,0,0,0-.38-.19C53.28,46.85,53.21,47.05,53.08,47.23Z"/><path class="cls-3" d="M55.39,45.71c0-.37-.22-.53-.43-.44s-.37.22-.35.48.26.45.44.33A1.43,1.43,0,0,0,55.39,45.71Z"/><path class="cls-3" d="M52.8,44c.19.13.3.28.44.3a.37.37,0,0,0,.33-.51c-.06-.12-.3-.29-.33-.27A2.88,2.88,0,0,0,52.8,44Z"/><path class="cls-3" d="M55.94,43.79c.05.32.27.48.51.42s.42-.17.36-.47-.25-.44-.46-.32A1.87,1.87,0,0,0,55.94,43.79Z"/><path class="cls-3" d="M31.44,42.72a.37.37,0,0,0,.66.18.91.91,0,0,0,.14-.38,2.51,2.51,0,0,0-.6-.1C31.57,42.42,31.51,42.62,31.44,42.72Z"/><path class="cls-3" d="M54.24,48.71c.17.1.29.24.41.24a.37.37,0,0,0,.32-.48.52.52,0,0,0-.32-.22A2.63,2.63,0,0,0,54.24,48.71Z"/><path class="cls-3" d="M53.26,39.93a2.94,2.94,0,0,0-.48.54c-.09.19.17.41.43.36s.35-.18.34-.24A2.65,2.65,0,0,0,53.26,39.93Z"/><path class="cls-3" d="M42.89,40.54c.16.12.26.25.36.25a.34.34,0,0,0,.37-.42c0-.09-.23-.23-.27-.21A2.65,2.65,0,0,0,42.89,40.54Z"/><path class="cls-3" d="M46,40.52c.06.12.09.31.19.36.31.16.7,0,.72-.28a.51.51,0,0,0-.19-.39C46.47,40,46.12,40.18,46,40.52Z"/><path class="cls-3" d="M41.19,22.21a1.45,1.45,0,0,0,.5.22c.16,0,.33-.41.23-.57a.47.47,0,0,0-.61-.14C41.12,21.79,41.07,21.93,41.19,22.21Z"/><path class="cls-3" d="M16.87,20.87a1.76,1.76,0,0,0,.33-.27c.12-.15-.12-.42-.4-.43a1.33,1.33,0,0,0-.44.09c-.06,0-.15.12-.14.15a.81.81,0,0,0,.22.36A1.13,1.13,0,0,0,16.87,20.87Z"/><path class="cls-3" d="M13.21,21.14c.29,0,.45-.16.39-.44a.56.56,0,0,0-.24-.35c-.25-.1-.68.36-.54.58S13.08,21.07,13.21,21.14Z"/><path class="cls-3" d="M10.2,26.91c-.34,0-.48.23-.42.47s.22.42.43.33.44-.21.35-.46S10.29,27,10.2,26.91Z"/><path class="cls-3" d="M12.71,27.56l.66.27a2.42,2.42,0,0,0,.2-.57s-.25-.19-.33-.16A3.08,3.08,0,0,0,12.71,27.56Z"/><path class="cls-3" d="M3.52,24.54c.37-.07.51-.27.46-.52s-.24-.45-.48-.38-.44.24-.35.5S3.42,24.44,3.52,24.54Z"/><path class="cls-3" d="M51.21,9.21c.06,0,.16.12.17.11A1.94,1.94,0,0,0,51.64,9c-.06,0-.13-.1-.2-.1S51.18,9,51.21,9.21Z"/><path class="cls-3" d="M47.73,5.85c.07,0,.17,0,.19,0s.08-.28-.11-.3a.19.19,0,0,0-.17.09C47.63,5.72,47.7,5.79,47.73,5.85Z"/><path class="cls-3" d="M19.55,27a3.47,3.47,0,0,0-.1.59s.27.11.32.06a.52.52,0,0,0,.17-.39C19.93,27.18,19.73,27.12,19.55,27Z"/><path class="cls-3" d="M24.42,18.84c.16.13.26.28.35.27.26,0,.32-.23.29-.47a.38.38,0,0,0-.13-.16Z"/><path class="cls-3" d="M61.09,25.81c0-.12.17-.24.15-.35s-.34-.4-.44-.24a.54.54,0,0,0,0,.39C60.8,25.71,61,25.75,61.09,25.81Z"/><path class="cls-3" d="M7.28,14.48c0-.19-.08-.33-.23-.27s-.18.22-.23.36.12.16.13.16A4.08,4.08,0,0,0,7.28,14.48Z"/><path class="cls-3" d="M55.67,13.71a1.32,1.32,0,0,0,.21.37.19.19,0,0,0,.34-.13c0-.12-.06-.33-.15-.36S55.8,13.67,55.67,13.71Z"/><path class="cls-3" d="M46.1,37.22c.09.09.16.23.27.26a.27.27,0,0,0,.32-.39.4.4,0,0,0-.34-.17C46.25,36.94,46.18,37.11,46.1,37.22Z"/><path class="cls-3" d="M36.31,16.93l.24.25a1.86,1.86,0,0,0,.21-.28s-.1-.14-.13-.13A1.59,1.59,0,0,0,36.31,16.93Z"/><path class="cls-3" d="M9.56,20.48a2,2,0,0,0,.53.29c.1,0,.29-.12.35-.23s-.2-.38-.45-.34S9.75,20.35,9.56,20.48Z"/><path class="cls-3" d="M34.46,42.63c.14,0,.29.13.4.1s.14-.21.21-.33c-.13,0-.28-.14-.38-.11S34.53,42.51,34.46,42.63Z"/><polygon class="cls-3" points="10.73 50.63 10.59 50.71 10.74 50.76 10.73 50.63"/><path class="cls-3" d="M59.31,40.34l.18.35s.14-.12.13-.15a1.69,1.69,0,0,0-.17-.36Z"/><path class="cls-3" d="M53.3,50.2c-.06,0-.14,0-.16,0a.2.2,0,0,0,0,.19c.1.19.2.17.25-.05C53.37,50.32,53.32,50.26,53.3,50.2Z"/><path class="cls-3" d="M60.72,34.53l0,.44c.19-.17-.1-.25-.08-.39Z"/><path class="cls-3" d="M43,3.75c0,.06,0,.15.06.17s.22,0,.2-.18-.09-.09-.14-.13Z"/><path class="cls-3" d="M21.55,2.62c-.07,0-.14-.08-.2-.06-.23.06-.25.18-.06.28a.25.25,0,0,0,.22,0S21.54,2.68,21.55,2.62Z"/><path class="cls-3" d="M8.4,12.64l.16.15a1.66,1.66,0,0,0,.14-.37s-.09-.1-.14-.15Z"/><path class="cls-3" d="M54.62,12.11c0,.06-.14.13-.13.18a.23.23,0,0,0,.35.19c.06,0,.1-.11.16-.17Z"/><path class="cls-3" d="M14.85,6.08s0,.13.06.13a.61.61,0,0,0,.18,0S15.05,6,15,6A.41.41,0,0,0,14.85,6.08Z"/><path class="cls-3" d="M16.47,51.41a2.39,2.39,0,0,0,.66-.06.66.66,0,0,0,.46-.89.71.71,0,0,0-.72-.44.67.67,0,0,0-.6.81,2.07,2.07,0,0,0,.25.62Z"/></g></g></g></svg>